<?xml version="1.0" encoding="UTF-8"?>
<svg id="Layer_2" data-name="Layer 2" xmlns="http://www.w3.org/2000/svg" viewBox="0 0 74.98 72.09">
  <defs>
    <style>
      .cls-1 {
        fill: #a6637c;
        stroke: #191919;
        stroke-miterlimit: 10;
        stroke-width: 3px;
      }
    </style>
  </defs>
  <g id="Layer_1-2" data-name="Layer 1">
    <g>
      <path class="cls-1" d="M67.1,62.48c0,1.95-.23,3.84-.67,5.65-1.94.51-3.98.77-6.08.77-.62,0-1.24-.02-1.85-.08-.84-.05-1.67-.16-2.49-.31-4.67-.83-8.87-2.99-12.21-6.07.34-.84.61-1.71.8-2.61.27-1.19.41-2.43.41-3.7,0-3.51-1.05-6.76-2.87-9.47,2.19.65,4.52,1,6.92,1,.87,0,1.73-.05,2.58-.14,2.93-.3,5.71-1.13,8.24-2.38.47.46.91.94,1.34,1.44.01.01.02.02.02.03,3.47,4.04,5.62,9.23,5.84,14.91.01.32.02.64.02.96Z"/>
      <path class="cls-1" d="M30.39,59.83c.19.9.46,1.77.8,2.61-3.34,3.08-7.54,5.24-12.21,6.07-.82.15-1.65.26-2.49.31-.61.06-1.23.08-1.85.08-2.1,0-4.13-.26-6.07-.76-.44-1.81-.67-3.71-.67-5.66,0-.32.01-.64.02-.96.22-5.68,2.37-10.87,5.83-14.91,0-.01.01-.02.02-.03.43-.5.88-.98,1.34-1.44,2.53,1.25,5.31,2.08,8.24,2.38.85.09,1.71.14,2.58.14,2.4,0,4.73-.35,6.92-1-1.82,2.71-2.87,5.96-2.87,9.47,0,1.27.14,2.51.41,3.7Z"/>
      <path class="cls-1" d="M73.48,23.87h0c-.09,3.82-1.06,7.4-2.72,10.58h0c-2.36,4.57-6.12,8.29-10.71,10.6-.06.04-.11.06-.17.09-2.53,1.25-5.31,2.08-8.24,2.38-.85.09-1.71.14-2.58.14-2.4,0-4.73-.35-6.92-1-.3-.46-.63-.91-.99-1.34-.3-.38-.62-.74-.96-1.08-.04-.05-.09-.09-.13-.14-.19-.18-.38-.37-.57-.55-.15-.13-.29-.26-.44-.38-.13-.12-.26-.23-.4-.33.12-.12.23-.25.34-.38.42-.53.72-1.15.87-1.82.07-.32.11-.64.11-.98,0-.13-.01-.27-.02-.4-.03-.36-.1-.71-.22-1.04-.26-.76-.71-1.43-1.31-1.93t-.02-.01c-.25-.24-.55-.43-.86-.59,0-.02,0-.04.02-.06.73-1.87,1.67-3.63,2.83-5.24,2.49-3.56,5.93-6.42,9.95-8.21h0c1.97-.9,4.07-1.53,6.28-1.87,1.21-.18,2.46-.28,3.73-.28,4.83,0,9.34,1.41,13.13,3.84Z"/>
      <path class="cls-1" d="M35.04,39.26c-.01.13-.02.27-.02.4,0,.34.04.66.11.98.15.67.45,1.29.87,1.82.11.13.22.26.34.38-.14.1-.27.21-.4.32-.15.13-.29.26-.44.39-.19.18-.38.37-.57.55-.04.05-.09.09-.13.14-.34.34-.66.7-.96,1.08-.36.43-.69.88-.99,1.34-2.19.65-4.52,1-6.92,1-.87,0-1.73-.05-2.58-.14-2.93-.3-5.71-1.13-8.24-2.38-.06-.03-.11-.05-.17-.09-4.59-2.31-8.35-6.03-10.7-10.6-1.67-3.18-2.63-6.78-2.72-10.59,3.79-2.43,8.29-3.83,13.12-3.83,1.27,0,2.52.1,3.73.28h.01c2.2.34,4.31.98,6.27,1.86h0c4.01,1.8,7.45,4.66,9.96,8.21,1.15,1.62,2.1,3.38,2.82,5.25.01.02.02.04.02.06-.32.16-.62.36-.89.6-.59.51-1.05,1.17-1.3,1.93-.12.33-.19.68-.22,1.04Z"/>
      <path class="cls-1" d="M45.01,56.13c0,1.27-.14,2.51-.41,3.7-.19.9-.46,1.77-.8,2.61-1.27,3.2-3.49,5.93-6.3,7.84-2.82-1.9-5.04-4.63-6.31-7.84-.34-.84-.61-1.71-.8-2.61-.27-1.19-.41-2.43-.41-3.7,0-3.51,1.05-6.76,2.87-9.47.3-.46.63-.91.99-1.34.3-.38.62-.74.96-1.08.04-.05.09-.09.13-.14.19-.18.38-.37.57-.55.15-.13.29-.26.44-.39.13-.11.26-.22.4-.32.34.34.73.62,1.16.83.43-.22.82-.5,1.15-.83.14.1.27.21.4.33.15.12.29.25.44.38.19.18.38.37.57.55.04.05.09.09.13.14.34.34.66.7.96,1.08.36.43.69.88.99,1.34,1.82,2.71,2.87,5.96,2.87,9.47Z"/>
      <path class="cls-1" d="M39.97,39.66c0,.34-.04.66-.11.98-.15.67-.45,1.29-.87,1.82-.11.13-.22.26-.34.38-.33.33-.72.61-1.15.83-.43-.21-.82-.49-1.16-.83-.12-.12-.23-.25-.34-.38-.42-.53-.72-1.15-.87-1.82-.07-.32-.11-.64-.11-.98,0-.13.01-.27.02-.4.03-.36.1-.71.22-1.04.25-.76.71-1.42,1.3-1.93.27-.24.57-.44.89-.6.02-.02.03-.02.05-.03.01.01.03.02.04.03.31.16.61.35.86.59t.02.01c.6.5,1.05,1.17,1.31,1.93.12.33.19.68.22,1.04.01.13.02.27.02.4Z"/>
      <path class="cls-1" d="M50.34,22.17h0c-4.02,1.8-7.46,4.66-9.95,8.22-1.16,1.61-2.1,3.37-2.83,5.24-.02.01-.04.02-.06.03-.02-.01-.05-.02-.07-.03-.72-1.87-1.67-3.63-2.82-5.25-2.51-3.55-5.95-6.41-9.96-8.2h0c.09-2.14.45-4.19,1.06-6.15.6-1.97,1.45-3.83,2.51-5.56.01-.01.01-.02.02-.03,2.01-3.27,4.77-6.03,8.04-8.04.01-.01.02-.01.03-.02.39-.24.78-.46,1.19-.68.41.22.81.45,1.2.7l.03.02c3.26,2,6.02,4.76,8.02,8.02v.02c1.08,1.73,1.93,3.6,2.53,5.57.61,1.96.97,4.01,1.06,6.14Z"/>
    </g>
  </g>
</svg>