<?xml version="1.0" encoding="UTF-8" standalone="no"?>
<svg
   id="Layer_2"
   data-name="Layer 2"
   viewBox="0 0 74.98 72.09"
   version="1.1"
   sodipodi:docname="Inkscape.svg"
   inkscape:version="1.4.2 (ebf0e940d0, 2025-05-08)"
   xmlns:inkscape="http://www.inkscape.org/namespaces/inkscape"
   xmlns:sodipodi="http://sodipodi.sourceforge.net/DTD/sodipodi-0.dtd"
   xmlns="http://www.w3.org/2000/svg"
   xmlns:svg="http://www.w3.org/2000/svg">
  <sodipodi:namedview
     id="namedview7"
     pagecolor="#505050"
     bordercolor="#eeeeee"
     borderopacity="1"
     inkscape:showpageshadow="0"
     inkscape:pageopacity="0"
     inkscape:pagecheckerboard="0"
     inkscape:deskcolor="#505050"
     inkscape:zoom="12.220836"
     inkscape:cx="37.476979"
     inkscape:cy="36.044998"
     inkscape:window-width="1920"
     inkscape:window-height="1131"
     inkscape:window-x="0"
     inkscape:window-y="0"
     inkscape:window-maximized="1"
     inkscape:current-layer="Layer_2" />
  <defs
     id="defs1">
    <style
       id="style1">
      .cls-1 {
        fill: #a6637c;
        stroke: #191919;
        stroke-miterlimit: 10;
        stroke-width: 3px;
      }
    </style>
  </defs>
  <g
     id="g35"
     inkscape:label="Leaves"
     style="display:inline;stroke:none">
    <path
       id="path29"
       style="baseline-shift:baseline;display:inline;overflow:visible;vector-effect:none;fill:#161616;stroke:none;stroke-width:3px;stroke-miterlimit:10;enable-background:accumulate;stop-color:#000000"
       d="M 59.527344 46.962891 C 57.120502 48.024966 54.517417 48.734718 51.792969 49.013672 C 50.897314 49.108319 49.986039 49.162109 49.060547 49.162109 C 47.922057 49.162109 46.809078 49.052493 45.708984 48.900391 C 45.484761 48.871146 45.249772 48.882615 45.027344 48.847656 C 45.984068 51.085663 46.509766 53.549281 46.509766 56.132812 C 46.509766 57.511727 46.356939 58.861141 46.0625 60.160156 L 46.0625 60.164062 C 45.937657 60.751448 45.781932 61.326648 45.597656 61.888672 C 48.608095 64.444354 52.219114 66.31458 56.273438 67.035156 L 56.275391 67.035156 L 56.279297 67.037109 C 57.050743 67.178227 57.821599 67.278489 58.589844 67.324219 L 58.617188 67.326172 L 58.646484 67.330078 C 59.190261 67.383568 59.761867 67.402344 60.349609 67.402344 C 61.992615 67.402344 63.554853 67.133367 65.087891 66.802734 C 65.364441 65.398275 65.599609 63.977263 65.599609 62.482422 C 65.599609 62.193672 65.590078 61.888359 65.580078 61.568359 C 65.370767 56.235461 63.354926 51.37762 60.101562 47.589844 L 60.011719 47.484375 C 59.852892 47.301036 59.689057 47.13529 59.527344 46.962891 z "
       inkscape:label="Leaf_Bottom_Right" />
    <path
       id="path30"
       style="baseline-shift:baseline;display:inline;overflow:visible;vector-effect:none;fill:#161616;stroke:none;stroke-width:3px;stroke-miterlimit:10;enable-background:accumulate;stop-color:#000000"
       d="M 15.462891 46.962891 C 15.292657 47.143939 15.119266 47.320425 14.957031 47.507812 L 14.888672 47.587891 C 11.644277 51.376144 9.6292337 56.235459 9.4199219 61.568359 C 9.4099209 61.888359 9.4003906 62.193672 9.4003906 62.482422 C 9.4003906 63.97721 9.6356671 65.40405 9.9121094 66.810547 C 11.444405 67.135692 12.999902 67.402344 14.640625 67.402344 C 15.228367 67.402344 15.799973 67.383568 16.34375 67.330078 L 16.371094 67.326172 L 16.400391 67.324219 C 17.168635 67.27849 17.939491 67.178227 18.710938 67.037109 L 18.712891 67.035156 L 18.716797 67.035156 C 22.770499 66.314691 26.382387 64.445665 29.392578 61.890625 C 29.208877 61.328147 29.052676 60.751909 28.927734 60.164062 L 28.927734 60.162109 L 28.927734 60.160156 C 28.633295 58.861141 28.480469 57.511727 28.480469 56.132812 C 28.480469 53.549282 29.006167 51.085662 29.962891 48.847656 C 29.740466 48.882613 29.50547 48.871147 29.28125 48.900391 C 28.181113 49.052585 27.068237 49.162109 25.929688 49.162109 C 25.002217 49.162109 24.08891 49.108702 23.191406 49.013672 C 20.468996 48.734296 17.868065 48.024371 15.462891 46.962891 z "
       inkscape:label="Leaf_Bottom_Left" />
    <path
       id="path31"
       style="baseline-shift:baseline;display:inline;overflow:visible;vector-effect:none;fill:#161616;stroke:none;stroke-width:3px;stroke-miterlimit:10;enable-background:accumulate;stop-color:#000000"
       d="M 60.349609 21.53125 C 59.160986 21.53125 57.986548 21.625858 56.847656 21.794922 C 54.771747 22.114292 52.807068 22.704357 50.962891 23.546875 L 50.957031 23.548828 L 50.949219 23.552734 C 49.066007 24.391279 47.317218 25.480217 45.748047 26.777344 L 45.746094 26.779297 C 45.705221 26.813127 45.671488 26.854563 45.630859 26.888672 C 44.891681 27.508621 44.186739 28.16909 43.533203 28.876953 C 42.843283 29.624404 42.202732 30.417582 41.619141 31.251953 L 41.613281 31.259766 L 41.607422 31.269531 C 41.596269 31.285011 41.585329 31.300896 41.574219 31.316406 C 40.718263 32.515852 40.073007 33.861552 39.466797 35.228516 C 40.239757 35.90239 40.815659 36.767653 41.146484 37.732422 C 41.229969 37.965652 41.294752 38.200836 41.34375 38.435547 C 41.392748 38.670258 41.425962 38.904496 41.445312 39.136719 L 41.445312 39.142578 L 41.445312 39.146484 C 41.455763 39.282349 41.470703 39.455186 41.470703 39.662109 C 41.470703 39.890933 41.456633 40.114967 41.431641 40.332031 C 41.406648 40.549095 41.370732 40.75919 41.326172 40.962891 L 41.324219 40.966797 L 41.324219 40.96875 C 41.298525 41.083517 41.262776 41.194575 41.222656 41.302734 C 41.090847 41.763426 40.920848 42.209309 40.6875 42.621094 C 40.833225 42.762165 40.967658 42.896051 41.091797 43.013672 L 41.166016 43.083984 L 41.207031 43.132812 L 41.207031 43.134766 L 41.208984 43.136719 C 41.215092 43.14107 41.274057 43.206706 41.320312 43.259766 L 41.361328 43.304688 C 41.694572 43.645524 42.01521 43.999734 42.3125 44.375 C 42.563514 44.675646 42.800665 44.982309 43.023438 45.294922 C 44.948183 45.824832 46.965453 46.162109 49.060547 46.162109 C 49.873076 46.162109 50.679925 46.11622 51.482422 46.03125 L 51.484375 46.029297 L 51.486328 46.029297 C 52.859708 45.888678 54.198349 45.624309 55.490234 45.248047 C 56.779872 44.87244 58.023256 44.386172 59.208984 43.800781 C 59.212102 43.799223 59.211943 43.798328 59.214844 43.796875 L 59.275391 43.767578 L 59.294922 43.753906 L 59.375 43.712891 C 63.681193 41.545723 67.213498 38.051409 69.427734 33.763672 L 69.429688 33.761719 L 69.429688 33.757812 C 70.848237 31.040351 71.642157 27.98895 71.851562 24.759766 C 68.459896 22.767913 64.567089 21.53125 60.349609 21.53125 z "
       inkscape:label="Leaf_Right" />
    <path
       id="path32"
       style="baseline-shift:baseline;display:inline;overflow:visible;vector-effect:none;fill:#161616;stroke:none;stroke-width:3px;stroke-miterlimit:10;enable-background:accumulate;stop-color:#000000"
       d="M 14.640625 21.53125 C 10.421572 21.53125 6.5380667 22.759921 3.1484375 24.75 C 3.3566797 27.976536 4.1441277 31.041976 5.5683594 33.753906 L 5.5703125 33.759766 L 5.5742188 33.765625 C 7.7780403 38.051354 11.308998 41.545658 15.615234 43.712891 L 15.695312 43.753906 L 15.714844 43.767578 L 15.775391 43.796875 L 15.78125 43.800781 C 18.154768 44.972582 20.757585 45.748304 23.501953 46.029297 L 23.505859 46.029297 L 23.507812 46.03125 C 24.310249 46.116207 25.117221 46.162109 25.929688 46.162109 C 25.979638 46.162109 26.030194 46.162431 26.080078 46.162109 C 28.121715 46.146552 30.087856 45.814178 31.966797 45.296875 C 32.18956 44.984277 32.426733 44.675632 32.677734 44.375 C 32.975025 43.999734 33.29597 43.645745 33.628906 43.304688 C 33.674154 43.248128 33.682373 43.241788 33.683594 43.242188 L 33.685547 43.242188 C 33.686714 43.241285 33.688846 43.238941 33.691406 43.236328 C 33.70774 43.219813 33.722109 43.200261 33.738281 43.183594 L 33.740234 43.181641 C 33.743173 43.178874 33.754581 43.167287 33.757812 43.164062 L 33.759766 43.162109 L 33.759766 43.160156 L 33.824219 43.083984 L 33.898438 43.013672 C 34.022602 42.896043 34.156964 42.762207 34.302734 42.621094 C 34.069396 42.209317 33.899383 41.763415 33.767578 41.302734 C 33.727457 41.194571 33.69171 41.083521 33.666016 40.96875 L 33.666016 40.966797 L 33.664062 40.962891 C 33.574941 40.555489 33.519531 40.119756 33.519531 39.662109 C 33.519531 39.455186 33.534472 39.282349 33.544922 39.146484 L 33.544922 39.142578 L 33.544922 39.136719 C 33.583306 38.676114 33.677452 38.206863 33.841797 37.744141 C 34.17341 36.743104 34.765895 35.879555 35.515625 35.212891 C 34.906673 33.834618 34.255572 32.473951 33.386719 31.25 L 33.384766 31.248047 C 32.851254 30.493479 32.273461 29.77204 31.654297 29.087891 C 30.287326 27.577597 28.71997 26.250212 26.998047 25.146484 C 26.05655 24.544449 25.0665 24.009413 24.039062 23.550781 L 23.429688 23.279297 C 21.762704 22.587027 19.989927 22.079072 18.152344 21.794922 L 18.148438 21.794922 C 17.007177 21.62515 15.831885 21.53125 14.640625 21.53125 z "
       inkscape:label="Leaf_Left" />
    <path
       id="path33"
       style="baseline-shift:baseline;display:inline;overflow:visible;vector-effect:none;fill:#161616;stroke:none;stroke-width:3px;stroke-miterlimit:10;enable-background:accumulate;stop-color:#000000"
       d="M 36.392578 44.775391 C 36.260858 44.902808 36.118369 45.041953 35.964844 45.1875 L 35.962891 45.189453 L 35.960938 45.191406 L 35.919922 45.244141 L 35.861328 45.302734 C 35.562923 45.60114 35.281626 45.917492 35.017578 46.251953 L 35.003906 46.267578 L 34.990234 46.285156 C 34.766344 46.552582 34.55364 46.830755 34.353516 47.115234 C 34.350827 47.119057 34.348388 47.123128 34.345703 47.126953 L 34.101562 47.488281 L 34.101562 47.490234 L 34.095703 47.498047 C 34.081475 47.519232 34.066859 47.541244 34.052734 47.5625 L 34.050781 47.564453 C 34.048692 47.567598 34.047009 47.571072 34.044922 47.574219 C 34.015294 47.618901 33.9862 47.663992 33.957031 47.708984 C 33.952684 47.71569 33.947696 47.721804 33.943359 47.728516 C 33.926211 47.755056 33.909566 47.781947 33.892578 47.808594 C 33.890039 47.812577 33.887301 47.816327 33.884766 47.820312 C 33.120261 49.021891 32.519339 50.331376 32.109375 51.724609 C 32.06357 51.880332 32.044898 52.049255 32.003906 52.207031 C 31.861841 52.753864 31.722815 53.303393 31.640625 53.873047 C 31.640441 53.874322 31.640809 53.875678 31.640625 53.876953 C 31.534696 54.612425 31.480469 55.364766 31.480469 56.132812 C 31.480469 56.712695 31.511583 57.283856 31.574219 57.845703 C 31.636855 58.40755 31.731013 58.960081 31.853516 59.5 L 31.855469 59.511719 L 31.857422 59.521484 C 32.028453 60.331632 32.271603 61.116791 32.580078 61.878906 L 32.582031 61.884766 L 32.583984 61.890625 C 33.598301 64.454369 35.36682 66.587491 37.498047 68.265625 C 39.616782 66.585758 41.379007 64.458154 42.394531 61.916016 L 42.40625 61.888672 L 42.408203 61.884766 L 42.410156 61.878906 C 42.718631 61.116791 42.961782 60.331632 43.132812 59.521484 L 43.134766 59.511719 L 43.136719 59.5 C 43.381724 58.420162 43.509766 57.292577 43.509766 56.132812 C 43.509766 55.365959 43.455215 54.613291 43.349609 53.878906 C 43.308836 53.595617 43.225701 53.326654 43.169922 53.048828 C 43.081253 52.607311 43.00809 52.158994 42.882812 51.732422 C 42.882401 51.731021 42.881271 51.729916 42.880859 51.728516 C 42.843103 51.600144 42.783166 51.48045 42.742188 51.353516 C 42.561672 50.794373 42.37164 50.240172 42.130859 49.710938 C 42.129887 49.708801 42.127926 49.707214 42.126953 49.705078 L 42.126953 49.703125 C 41.776178 48.933278 41.363272 48.196007 40.894531 47.498047 L 40.892578 47.496094 L 40.888672 47.490234 L 40.886719 47.486328 L 40.882812 47.482422 L 40.882812 47.480469 C 40.870279 47.461251 40.85639 47.442991 40.84375 47.423828 C 40.584522 47.030815 40.304143 46.648439 40 46.285156 L 39.986328 46.267578 L 39.972656 46.251953 C 39.708608 45.917492 39.427312 45.60114 39.128906 45.302734 L 39.070312 45.244141 L 39.029297 45.191406 C 39.027797 45.190006 39.026891 45.1889 39.025391 45.1875 C 38.872256 45.042325 38.730919 44.902349 38.599609 44.775391 C 38.46443 44.857976 38.324796 44.935569 38.183594 45.007812 L 37.515625 45.349609 L 36.841797 45.019531 C 36.823026 45.010364 36.804796 45.000963 36.787109 44.990234 L 36.785156 44.988281 C 36.651743 44.921248 36.519927 44.852277 36.392578 44.775391 z "
       inkscape:label="Leaf_Bottom" />
    <path
       id="path34"
       style="baseline-shift:baseline;display:inline;overflow:visible;vector-effect:none;fill:#161616;stroke:none;stroke-width:3px;stroke-miterlimit:10;enable-background:accumulate;stop-color:#000000"
       d="M 37.494141 37.496094 C 37.145822 37.814732 36.863379 38.195756 36.707031 38.628906 C 36.699623 38.649684 36.692444 38.670439 36.685547 38.691406 L 36.677734 38.712891 L 36.669922 38.734375 C 36.602306 38.920319 36.555806 39.138973 36.535156 39.386719 C 36.526126 39.505491 36.519531 39.610849 36.519531 39.662109 C 36.519531 39.88179 36.54411 40.08531 36.59375 40.314453 L 36.595703 40.314453 L 36.595703 40.316406 C 36.67032 40.64832 36.800572 40.962518 36.978516 41.248047 C 37.03783 41.343223 37.102163 41.434949 37.171875 41.523438 C 37.264686 41.63255 37.345903 41.726629 37.400391 41.78125 C 37.401998 41.782857 37.402633 41.783643 37.404297 41.785156 L 37.40625 41.785156 C 37.409404 41.787972 37.412697 41.792378 37.416016 41.794922 C 37.434418 41.809027 37.45552 41.819055 37.474609 41.832031 C 37.478428 41.834627 37.480707 41.837 37.484375 41.839844 C 37.488043 41.842687 37.492635 41.846421 37.496094 41.849609 C 37.509759 41.837014 37.52618 41.827115 37.542969 41.816406 C 37.55556 41.808375 37.569166 41.800008 37.580078 41.791016 C 37.583715 41.788018 37.586611 41.784483 37.589844 41.78125 C 37.59219 41.778904 37.595214 41.775927 37.597656 41.773438 C 37.651951 41.718097 37.729086 41.628398 37.818359 41.523438 C 38.097208 41.169483 38.295041 40.758957 38.394531 40.316406 L 38.396484 40.316406 L 38.396484 40.314453 C 38.446124 40.08531 38.470703 39.88179 38.470703 39.662109 C 38.470703 39.610845 38.464078 39.505491 38.455078 39.386719 C 38.434433 39.138973 38.387932 38.920319 38.320312 38.734375 L 38.314453 38.720703 L 38.310547 38.707031 C 38.268421 38.583893 38.218809 38.465853 38.162109 38.353516 L 38.160156 38.351562 L 38.160156 38.349609 C 38.10435 38.238647 38.04067 38.133374 37.972656 38.033203 C 37.833998 37.830879 37.67166 37.65146 37.494141 37.496094 z "
       inkscape:label="Leaf_Center" />
    <path
       id="path35"
       style="baseline-shift:baseline;display:inline;overflow:visible;vector-effect:none;fill:#161616;stroke:none;stroke-width:3px;stroke-miterlimit:10;enable-background:accumulate;stop-color:#000000"
       d="M 37.494141 3.4335938 C 37.378023 3.5011108 37.252898 3.5649248 37.138672 3.6347656 L 37.066406 3.6796875 C 33.997496 5.5660817 31.403972 8.1576526 29.517578 11.226562 L 29.494141 11.265625 C 28.500303 12.889271 27.70513 14.628118 27.144531 16.46875 L 27.144531 16.472656 L 27.142578 16.478516 C 26.664662 18.014118 26.431619 19.636054 26.296875 21.294922 C 30.112805 23.216174 33.388407 26.055193 35.833984 29.513672 L 35.833984 29.515625 C 36.029556 29.791166 36.200611 30.082118 36.365234 30.376953 C 36.754869 30.976681 37.156415 31.568831 37.494141 32.201172 C 37.830988 31.576299 38.233267 30.990211 38.623047 30.396484 C 38.791949 30.095577 38.969293 29.798815 39.171875 29.517578 L 39.173828 29.515625 C 41.601634 26.050575 44.875088 23.213895 48.695312 21.302734 C 48.560744 19.644128 48.327188 18.019307 47.847656 16.478516 L 47.845703 16.472656 L 47.845703 16.46875 C 47.283661 14.623377 46.488605 12.873872 45.478516 11.255859 L 45.417969 11.160156 C 43.54589 8.1343036 40.978474 5.5620073 37.945312 3.7011719 L 37.921875 3.6855469 L 37.890625 3.6640625 C 37.764654 3.5833119 37.624427 3.5112891 37.494141 3.4335938 z M 37.355469 3.4550781 C 37.347826 3.4596979 37.342328 3.4617394 37.330078 3.4726562 L 37.318359 3.4863281 L 37.355469 3.4550781 z "
       inkscape:label="Leaf_Top" />
  </g>
  <path
     id="path28"
     style="display:inline;baseline-shift:baseline;overflow:visible;vector-effect:none;fill:#ffffff;stroke:none;stroke-width:3px;stroke-miterlimit:10;enable-background:accumulate;stop-color:#000000"
     d="m 37.5,-0.00195313 -0.708984,0.38085938 c -0.427908,0.22960923 -0.8459,0.46316193 -1.267579,0.72265625 l -0.15039,0.09375 -0.101563,0.1015625 0.222657,-0.1738281 c -0.08184,0.050305 -0.143378,0.1265499 -0.22461,0.1777343 l -0.0098,0.00977 c -0.01517,0.013527 -0.01831,0.00889 -0.0332,0.023437 -0.0036,0.00349 -0.0043,0.00231 -0.0078,0.00586 -3.241061,2.0534736 -5.985589,4.7980014 -8.039063,8.0390626 -0.0036,0.00356 -0.0024,0.00422 -0.0059,0.00781 -0.01459,0.014938 -0.0099,0.017982 -0.02344,0.033203 l -0.0098,0.00977 c -0.05118,0.081232 -0.12743,0.1427701 -0.177734,0.2246094 l 0.173828,-0.2226563 -0.103516,0.1035157 -0.0918,0.1503906 c -0.01227,0.02003 -0.01708,0.044389 -0.0293,0.064453 -3.07e-4,5.045e-4 3.08e-4,0.00145 0,0.00195 -1.106146,1.8164268 -2.005497,3.7692858 -2.636718,5.8417968 -0.646658,2.08064 -1.029777,4.259244 -1.125,6.523437 l -0.04102,1.017579 0.929687,0.414062 c 3.758512,1.67774 6.989432,4.36469 9.345704,7.697266 l 0.002,0.002 c 1.078869,1.519799 1.968153,3.170244 2.642578,4.921875 l 0.208984,0.541015 0.521485,0.259766 c 0.198885,0.09944 0.229198,0.110693 0.07031,0.03125 L 37.5,37.337891 l 1.248047,-0.625 0.208984,-0.53711 c 0.687317,-1.76066 1.568805,-3.407036 2.650391,-4.908203 l 0.0059,-0.0098 0.0059,-0.0078 c 2.334364,-3.337486 5.563565,-6.02269 9.333984,-7.710938 L 51.88094,23.123025 51.83797,22.1074 C 51.742625,19.852813 51.361498,17.674384 50.714844,15.59375 50.1311,13.677125 49.263907,11.878207 48.25,10.169922 V 10.015625 L 48.029297,9.65625 C 45.904974,6.1936042 42.976318,3.2649476 39.513672,1.140625 l -0.0039,-0.00391 C 39.079359,0.86081679 38.644626,0.61266492 38.208984,0.37890625 Z M 37.4941,3.4316406 c 0.130295,0.077702 0.270504,0.1497122 0.396484,0.2304688 l 0.03125,0.021484 0.02344,0.015625 c 3.033162,1.8608354 5.600578,4.4331319 7.472657,7.4589846 l 0.06055,0.0957 c 1.010089,1.618013 1.805145,3.367518 2.367187,5.212891 v 0.0039 l 0.002,0.0059 c 0.492455,1.582316 0.724545,3.25388 0.857422,4.958985 -3.792735,1.91815 -7.11611,4.631153 -9.53125,8.078125 -5.18e-4,7.18e-4 -0.0014,0.0012 -0.002,0.002 -0.688144,0.955322 -1.131273,2.053312 -1.673828,3.095703 -0.54203,-1.042252 -0.986166,-2.14257 -1.664063,-3.097656 v -0.002 c -2.432052,-3.439353 -5.758204,-6.152807 -9.548828,-8.066407 0.13283,-1.712104 0.364837,-3.386016 0.857422,-4.96875 l 0.002,-0.0059 v -0.0039 c 0.560599,-1.840632 1.355772,-3.579479 2.34961,-5.203125 l 0.02344,-0.03906 c 1.886394,-3.06891 4.479918,-5.6604808 7.548828,-7.546875 l 0.07227,-0.044922 C 37.252927,3.562965 37.378034,3.4991638 37.49416,3.4316401 Z m -0.123047,0.00977 -0.05273,0.042969 0.01172,-0.013672 c 0.01888,-0.016825 0.02262,-0.010904 0.04102,-0.029297 z m -8.048828,8.0371094 -0.04102,0.05273 c 0.01834,-0.01834 0.01252,-0.0222 0.0293,-0.04102 z m 8.47465,22.355464 -0.966797,0.484375 c 0.158886,-0.07944 -0.244629,0.113771 -0.441406,0.310547 l 0.390625,-0.28125 c -0.427659,0.21383 -0.834852,0.485161 -1.205078,0.8125 -0.777224,0.673399 -1.392278,1.555241 -1.732422,2.582031 -0.164345,0.462722 -0.258491,0.931974 -0.296875,1.392579 v 0.0059 0.0039 c -0.01045,0.135865 -0.02539,0.308702 -0.02539,0.515625 0,0.457647 0.05541,0.893379 0.144531,1.300781 l 0.002,0.0039 v 0.002 c 0.200053,0.89357 0.600486,1.721996 1.158203,2.425781 l 0.01563,0.01758 0.01563,0.01953 c 0.11,0.13 0.244902,0.291778 0.423828,0.470704 0.454385,0.454385 0.981431,0.833409 1.5625,1.117187 l 0.673828,0.330078 0.667969,-0.341797 c 0.56203,-0.28755 1.079492,-0.657617 1.527343,-1.105468 0.178926,-0.178926 0.313829,-0.340703 0.423829,-0.470704 l 0.01563,-0.01953 0.01563,-0.01758 c 0.557716,-0.703785 0.95815,-1.532211 1.158203,-2.425781 v -0.002 l 0.002,-0.0039 c 0.08912,-0.407402 0.144531,-0.843134 0.144531,-1.300781 0,-0.206923 -0.01494,-0.37976 -0.02539,-0.515625 v -0.0039 -0.0059 c -0.0387,-0.464445 -0.131858,-0.937836 -0.298828,-1.404297 -0.339482,-0.990015 -0.936468,-1.875489 -1.740234,-2.556641 -0.291181,-0.273614 -0.5906,-0.443303 -0.884766,-0.613281 z m 1.609375,1.339844 c -0.01169,-0.0099 -0.01361,-0.0273 -0.02539,-0.03711 L 39.246094,35.025391 39.070312,34.9375 Z m -1.912109,2.320313 c 0.355038,0.310732 0.647901,0.718385 0.816406,1.210937 l 0.0039,0.01367 0.0059,0.01367 c 0.06762,0.185944 0.114121,0.404598 0.134766,0.652344 0.009,0.118772 0.01563,0.224126 0.01563,0.27539 0,0.219681 -0.02458,0.423201 -0.07422,0.652344 -1.63e-4,7.55e-4 -0.0018,0.0012 -0.002,0.002 -0.09949,0.442551 -0.297323,0.853077 -0.576172,1.207031 -0.09329,0.109682 -0.17401,0.203308 -0.228515,0.257813 -0.02586,0.02586 -0.06642,0.04317 -0.09375,0.06836 -0.02933,-0.02704 -0.06724,-0.0399 -0.0957,-0.06836 -0.0545,-0.0545 -0.135221,-0.148131 -0.228516,-0.257813 -0.278849,-0.353954 -0.476683,-0.76448 -0.576172,-1.207031 -1.94e-4,-8.62e-4 -0.0018,-0.0011 -0.002,-0.002 -0.04964,-0.229143 -0.07422,-0.432663 -0.07422,-0.652344 0,-0.05126 0.0066,-0.156618 0.01563,-0.27539 0.02065,-0.247746 0.06715,-0.4664 0.134766,-0.652344 l 0.0078,-0.02148 0.0078,-0.02148 c 0.15104,-0.459162 0.443568,-0.86139 0.808594,-1.195312 z m -0.992188,3.386718 -1.033203,0.738282 c -0.205978,0.147127 -0.368047,0.286484 -0.498047,0.396484 l -0.0059,0.0059 -0.0078,0.0059 c -0.174934,0.151609 -0.314387,0.280281 -0.439453,0.388672 l -0.02539,0.02148 -0.02344,0.02344 c -0.210136,0.199077 -0.400448,0.389858 -0.570313,0.550782 l -0.07422,0.07031 -0.06641,0.08008 c 0.01264,-0.01581 -0.02528,0.02787 -0.01758,0.01758 -0.01725,0.01725 -0.03167,0.03734 -0.04883,0.05469 -0.02377,0.02426 0.0235,-0.03914 -0.0625,0.06836 -0.332936,0.341058 -0.653881,0.695047 -0.951172,1.070313 -0.391778,0.469244 -0.748125,0.955434 -1.072265,1.451172 -1.98059,2.949119 -3.125,6.497495 -3.125,10.30664 0,1.378915 0.152826,2.728329 0.447265,4.027344 2.82e-4,0.0012 -2.82e-4,0.0027 0,0.0039 0.207974,0.978514 0.500246,1.921976 0.867188,2.830078 5.42e-4,0.0014 0.0014,0.0025 0.002,0.0039 1.383227,3.493731 3.796788,6.459951 6.865234,8.527343 l 0.841797,0.56836 0.839844,-0.570313 c 3.053406,-2.075447 5.461987,-5.037889 6.845703,-8.519531 V 63 c 0.368438,-0.910534 0.664468,-1.856527 0.873047,-2.837891 v -0.0039 c 0.294439,-1.299015 0.447266,-2.648429 0.447266,-4.027344 0,-3.809145 -1.144411,-7.357521 -3.125,-10.30664 -0.324141,-0.495738 -0.680488,-0.981928 -1.072266,-1.451172 -0.309919,-0.391207 -0.643551,-0.761235 -0.992188,-1.115235 -0.06465,-0.07416 -0.156215,-0.178668 -0.08984,-0.0957 l -0.06445,-0.08008 -0.07422,-0.07031 c -0.169877,-0.160933 -0.36019,-0.351714 -0.570326,-0.550791 l -0.02344,-0.02344 -0.02539,-0.02148 C 40.36866,42.325887 40.22608,42.199663 40.068357,42.06836 l -0.0059,-0.0039 c -0.159294,-0.1468 -0.337077,-0.299642 -0.541016,-0.445312 l -1.033203,-0.738282 -0.898437,0.898438 c -0.02586,0.02586 -0.06642,0.04317 -0.09375,0.06836 -0.02933,-0.02704 -0.06724,-0.0399 -0.0957,-0.06836 z m -0.06445,3.847657 c 0.142784,0.08584 0.253947,0.215635 0.404297,0.289062 l 0.673828,0.330078 0.667969,-0.341797 c 0.138003,-0.07061 0.242732,-0.191066 0.375,-0.271484 0.144831,0.139565 0.294965,0.288271 0.466797,0.451172 0.0015,0.0014 0.0024,0.0025 0.0039,0.0039 l 0.04102,0.05273 0.05859,0.05859 c 0.298406,0.298406 0.579702,0.614758 0.84375,0.949219 l 0.01367,0.01563 L 40,46.283203 c 0.318973,0.380996 0.613241,0.78197 0.882812,1.195313 l 0.0059,0.0098 0.0059,0.0078 c 1.659411,2.47088 2.615235,5.423911 2.615235,8.634765 0,1.159764 -0.128042,2.28735 -0.373047,3.367188 l -0.002,0.01172 -0.002,0.0098 c -0.171031,0.810148 -0.414181,1.595307 -0.722656,2.357422 l -0.002,0.0059 -0.002,0.0039 c -1.013763,2.554364 -2.781792,4.691 -4.908203,6.376953 -2.131227,-1.678134 -3.899746,-3.811256 -4.914063,-6.375 l -0.002,-0.0059 -0.002,-0.0059 C 32.271403,61.114849 32.028253,60.32969 31.857222,59.519542 l -0.002,-0.0098 -0.002,-0.01172 c -0.245006,-1.079838 -0.373047,-2.207424 -0.373047,-3.367188 0,-3.210854 0.955824,-6.163885 2.615234,-8.634765 l 0.0059,-0.0078 0.0039,-0.0098 c 0.269571,-0.413343 0.565792,-0.814317 0.884765,-1.195313 l 0.01367,-0.01758 0.01367,-0.01563 c 0.264048,-0.334461 0.545345,-0.650813 0.84375,-0.949219 l 0.05859,-0.05859 0.04102,-0.05273 0.002,-0.002 0.002,-0.002 c 0.174024,-0.16498 0.326325,-0.316131 0.472656,-0.457031 z M 14.640625,18.529297 c -5.1198551,0 -9.9058996,1.488464 -13.9296875,4.068359 L 0,23.052734 0.01953125,23.894531 c 0.09542023,4.039457 1.11593315,7.868881 2.89257815,11.251953 2.4821301,4.821654 6.4412513,8.741245 11.2734376,11.195313 0.123478,0.07209 0.253622,0.140483 0.253906,0.140625 h 0.002 l 0.0039,0.002 c 2.683142,1.325663 5.634988,2.20808 8.746093,2.527344 0.897504,0.09503 1.81081,0.148437 2.738281,0.148437 2.545834,0 5.020248,-0.371716 7.347657,-1.0625 l 0.527343,-0.15625 0.300782,-0.46289 c 0.269571,-0.413343 0.565792,-0.814317 0.884765,-1.195313 l 0.01367,-0.01758 0.01367,-0.01563 c 0.264048,-0.334461 0.545345,-0.650813 0.84375,-0.949219 l 0.05859,-0.05859 0.04102,-0.05273 0.002,-0.002 0.002,-0.002 c 0.201083,-0.190633 0.382767,-0.371229 0.546875,-0.527344 0.006,-0.0057 0.01361,-0.01393 0.01953,-0.01953 0.143306,-0.125685 0.269028,-0.240009 0.376953,-0.333985 l 0.0059,-0.0039 c 0.0024,-0.002 0.0055,-0.0058 0.0078,-0.0078 0.121253,-0.102402 0.218467,-0.181996 0.289062,-0.232422 l 1.441407,-1.029297 -1.251953,-1.251953 c -0.0545,-0.0545 -0.135221,-0.148131 -0.228516,-0.257813 -0.278849,-0.353954 -0.476683,-0.76448 -0.576172,-1.207031 -1.94e-4,-8.62e-4 -0.0018,-0.0011 -0.002,-0.002 -0.04964,-0.229143 -0.07422,-0.432663 -0.07422,-0.652344 0,-0.05126 0.0066,-0.156618 0.01563,-0.27539 0.02065,-0.247746 0.06715,-0.4664 0.134766,-0.652344 l 0.0078,-0.02148 0.0078,-0.02148 c 0.159884,-0.486048 0.458023,-0.92207 0.855469,-1.265625 l 0.0078,-0.0059 0.0078,-0.0078 c 0.166909,-0.148363 0.356256,-0.274808 0.564453,-0.378906 l 0.828125,-0.414063 V 35.68936 c 0,-0.489524 -0.142138,-0.649311 -0.167969,-0.6875 -0.760761,-1.951983 -1.746295,-3.796239 -2.947266,-5.488281 v -0.002 c -2.663655,-3.76688 -6.311591,-6.799292 -10.570312,-8.710938 -2.079054,-0.933452 -4.316575,-1.611372 -6.654297,-1.972656 l -0.01953,-0.002 -0.09375,-0.01563 h -0.113282 -0.01367 c -1.211938,-0.170659 -2.455126,-0.28125 -3.728516,-0.28125 z m 0,3 c 1.19126,0 2.366552,0.0939 3.507812,0.263672 h 0.0039 c 2.061599,0.31879 4.042427,0.919798 5.882812,1.746093 3.760837,1.688157 6.993338,4.374456 9.34961,7.707032 l 0.002,0.002 c 0.873319,1.230241 1.527025,2.598843 2.138672,3.984375 -0.74663,0.665732 -1.35299,1.511775 -1.683594,2.509765 -0.164345,0.462722 -0.258491,0.931974 -0.296875,1.392579 v 0.0059 0.0039 c -0.01045,0.135865 -0.02539,0.308702 -0.02539,0.515625 0,0.457647 0.05541,0.893379 0.144531,1.300781 l 0.002,0.0039 v 0.002 c 0.128079,0.572089 0.461165,1.050213 0.742187,1.552734 -0.18398,0.175995 -0.357953,0.348365 -0.509766,0.492188 l -0.07422,0.07031 -0.06641,0.08008 c 0.01264,-0.01581 -0.02528,0.02787 -0.01758,0.01758 -0.01725,0.01725 -0.03167,0.03734 -0.04883,0.05469 -0.02377,0.02426 0.0235,-0.03914 -0.0625,0.06836 -0.332936,0.341058 -0.653881,0.695047 -0.951172,1.070313 -0.245636,0.294205 -0.453075,0.604158 -0.671875,0.910156 -1.93634,0.53604 -3.967095,0.876953 -6.076172,0.876953 -0.812528,0 -1.619378,-0.04589 -2.421875,-0.130859 l -0.002,-0.002 h -0.0039 c -2.74676,-0.281238 -5.351375,-1.058911 -7.726562,-2.232422 l 0.0059,0.0039 c -0.119628,-0.05981 -0.07777,-0.04143 -0.0098,0.0039 l -0.07617,-0.05078 -0.08008,-0.04102 C 11.309042,41.543769 7.7780402,38.049401 5.5742187,33.763672 l -0.00391,-0.0059 -0.00195,-0.0059 C 4.144127,31.039942 3.3566797,27.974583 3.1484375,24.748047 6.5380667,22.757968 10.421572,21.529297 14.640625,21.529297 Z m 20.9375,13.625 c -0.0018,0.0015 -0.0021,0.0043 -0.0039,0.0059 -0.0036,0.0032 -0.0081,0.0046 -0.01172,0.0078 z m 24.771484,-16.625 c -1.34874,0 -2.672432,0.106649 -3.951172,0.296875 h -0.002 l -0.0039,0.002 c -2.341383,0.360213 -4.574245,1.030615 -6.667969,1.986328 -4.262671,1.899483 -7.90745,4.926563 -10.550781,8.699219 -5.18e-4,7.18e-4 -0.0014,0.0012 -0.002,0.002 -1.237696,1.718243 -2.237405,3.589847 -3.009766,5.568359 L 36.5,34.570312 c -0.373553,0.373554 -0.460938,1.099141 -0.460938,1.119141 v 0.914063 l 0.8125,0.419921 c 0.230412,0.118922 0.406927,0.239165 0.509766,0.337891 l 0.125,0.121094 c 0.359904,0.311596 0.654089,0.725354 0.824219,1.222656 l 0.0039,0.01367 0.0059,0.01367 c 0.06762,0.185944 0.114121,0.404598 0.134766,0.652344 0.009,0.118772 0.01563,0.224126 0.01563,0.27539 0,0.219681 -0.02458,0.423201 -0.07422,0.652344 -1.63e-4,7.55e-4 -0.0018,0.0012 -0.002,0.002 -0.09949,0.442551 -0.297323,0.853077 -0.576172,1.207031 -0.09329,0.109682 -0.17401,0.203308 -0.228515,0.257813 l -1.251953,1.251953 1.439453,1.029297 c 0.07402,0.05287 0.156378,0.119109 0.255859,0.210937 l 0.03906,0.03711 0.04102,0.0332 c 0.08744,0.06995 0.211628,0.183419 0.371094,0.322265 0.162717,0.154973 0.342125,0.332931 0.541016,0.521485 0.0015,0.0014 0.0024,0.0025 0.0039,0.0039 l 0.04102,0.05273 0.05859,0.05859 c 0.298406,0.298406 0.579702,0.614758 0.84375,0.949219 l 0.01367,0.01563 L 40,46.283203 c 0.318973,0.380996 0.613241,0.78197 0.882812,1.195313 l 0.302735,0.46289 0.527344,0.15625 c 2.327408,0.690784 4.801823,1.0625 7.347656,1.0625 0.925492,0 1.836767,-0.05379 2.732422,-0.148437 3.11324,-0.318762 6.06714,-1.200855 8.751953,-2.527344 l 0.002,-0.002 h 0.0039 c 2.84e-4,-1.42e-4 0.130429,-0.06854 0.253906,-0.140625 4.833478,-2.454724 8.793635,-6.375827 11.285157,-11.197266 1.762786,-3.376903 2.795167,-7.186627 2.890625,-11.238281 L 75,23.0625 74.289062,22.607422 C 70.265839,20.027888 65.471535,18.529297 60.349609,18.529297 Z m 0,3 c 4.21748,0 8.110286,1.236662 11.501953,3.228515 -0.209405,3.229184 -1.003325,6.280585 -2.421875,8.998047 v 0.0039 l -0.002,0.002 c -2.214236,4.287737 -5.746541,7.78205 -10.052734,9.949218 l -0.08008,0.04102 -0.07617,0.05078 c 0.06801,-0.04534 0.109863,-0.06372 -0.0098,-0.0039 l 0.0059,-0.0039 c -2.375187,1.173511 -4.981756,1.951184 -7.728516,2.232422 h -0.002 l -0.002,0.002 c -0.802497,0.08497 -1.609346,0.130859 -2.421875,0.130859 -2.109076,0 -4.139832,-0.340913 -6.076172,-0.876953 -0.218799,-0.305998 -0.426239,-0.615951 -0.671875,-0.910156 -0.29729,-0.375266 -0.618235,-0.729255 -0.951172,-1.070313 l -0.04102,-0.04492 c -0.06465,-0.07416 -0.156215,-0.178668 -0.08984,-0.0957 l -0.06445,-0.08008 -0.07422,-0.07031 c -0.151813,-0.143823 -0.325786,-0.316193 -0.509766,-0.492188 0.281022,-0.502521 0.614108,-0.980645 0.742188,-1.552734 v -0.002 l 0.002,-0.0039 c 0.08912,-0.407402 0.144531,-0.843134 0.144531,-1.300781 0,-0.206923 -0.01494,-0.37976 -0.02539,-0.515625 v -0.0039 -0.0059 c -0.0387,-0.464445 -0.131858,-0.937836 -0.298828,-1.404297 -0.329433,-0.960711 -0.92184,-1.807468 -1.689453,-2.480469 0.617107,-1.392781 1.27282,-2.764415 2.150391,-3.982422 l 0.0059,-0.0098 0.0059,-0.0078 c 2.334364,-3.337486 5.561976,-6.021382 9.330078,-7.699219 l 0.0078,-0.0039 0.0059,-0.002 c 1.844177,-0.842518 3.808856,-1.432583 5.884765,-1.751953 1.138892,-0.169064 2.31333,-0.263672 3.501953,-0.263672 z m -45.539062,21.789062 -0.761719,0.761719 c -0.457041,0.457041 -0.904834,0.938279 -1.339844,1.439453 -5.9e-5,5.9e-5 -0.0019,0.0019 -0.002,0.002 -0.006,0.0057 -0.05182,0.0424 -0.15039,0.173828 -0.003,0.004 -0.0066,0.02308 -0.0098,0.02734 -3.6317722,4.276972 -5.8932387,9.756579 -6.125,15.740235 v 0.0039 l -0.00195,0.0059 c -0.01,0.32 -0.019531,0.656563 -0.019531,1.007813 0,2.067948 0.2443178,4.086133 0.7128906,6.013672 l 0.2109375,0.873046 0.8710938,0.22461 c 2.0631911,0.53175 4.2215021,0.808594 6.4453121,0.808594 0.63949,0 1.29435,-0.02248 1.957031,-0.08594 0.902857,-0.0546 1.784065,-0.170975 2.644531,-0.328125 4.958889,-0.881344 9.421076,-3.175453 12.964844,-6.443359 L 32.970625,62.83992 32.58,61.877029 c -0.308475,-0.762115 -0.551625,-1.547274 -0.722656,-2.357422 l -0.002,-0.0098 -0.002,-0.01172 c -0.245006,-1.079838 -0.373047,-2.207424 -0.373047,-3.367188 0,-3.210854 0.955824,-6.163885 2.615234,-8.634765 l 2.324219,-3.460938 -3.996094,1.1875 c -2.052591,0.609217 -4.239974,0.9375 -6.494141,0.9375 -0.812528,0 -1.619378,-0.04589 -2.421875,-0.130859 l -0.002,-0.002 h -0.0039 c -2.74676,-0.281238 -5.351375,-1.058911 -7.726562,-2.232422 z m 0.707031,3.583985 c 2.399722,1.05665 4.958717,1.830748 7.673828,2.109375 0.897504,0.09503 1.81081,0.148437 2.738281,0.148437 1.453651,0 2.872854,-0.152323 4.265625,-0.384765 -1.000559,2.280325 -1.714843,4.710138 -1.714843,7.355468 0,1.378915 0.152826,2.728329 0.447265,4.027344 2.82e-4,0.0012 -2.82e-4,0.0027 0,0.0039 0.123586,0.581469 0.334106,1.124663 0.515625,1.681641 -3.020504,2.577548 -6.649645,4.464862 -10.726562,5.189453 h -0.0039 l -0.002,0.002 c -0.771446,0.141118 -1.542302,0.241381 -2.310546,0.28711 l -0.0293,0.002 -0.02734,0.0039 c -0.543777,0.05349 -1.115383,0.07227 -1.703125,0.07227 -1.640723,0 -3.19622,-0.266652 -4.7285156,-0.591797 -0.2764423,-1.406497 -0.5117188,-2.833337 -0.5117188,-4.328125 0,-0.28875 0.00953,-0.594063 0.019531,-0.914063 0.2093118,-5.3329 2.2243554,-10.192216 5.4687504,-13.980469 l 0.06836,-0.08008 c 0.179479,-0.207306 0.373282,-0.402142 0.560547,-0.603515 z m 44.652344,-3.578125 -0.955078,0.470703 c -2.375187,1.173511 -4.981756,1.951184 -7.728516,2.232422 h -0.002 l -0.002,0.002 c -0.802497,0.08497 -1.609346,0.130859 -2.421875,0.130859 -2.254167,0 -4.44155,-0.328283 -6.494141,-0.9375 l -3.996094,-1.1875 2.324219,3.460938 c 1.659411,2.47088 2.615235,5.423911 2.615235,8.634765 0,1.159764 -0.128042,2.28735 -0.373047,3.367188 l -0.002,0.01172 -0.002,0.0098 c -0.171031,0.810148 -0.414181,1.595307 -0.722656,2.357422 l -0.390625,0.962891 0.763672,0.703125 c 3.543768,3.267906 8.005956,5.562015 12.964844,6.443359 0.860466,0.15715 1.741674,0.273529 2.644531,0.328125 0.662681,0.06346 1.317541,0.08594 1.957031,0.08594 2.22381,0 4.392105,-0.276444 6.460938,-0.820313 l 0.865234,-0.226562 0.210938,-0.869141 c 0.468273,-1.926306 0.71289,-3.935958 0.71289,-6.003906 0,-0.35125 -0.0095,-0.687813 -0.01953,-1.007813 l -0.002,-0.0059 v -0.0039 C 68.346421,55.480722 66.084356,50.0016 62.443359,45.724609 c -0.0034,-0.0046 -0.0066,-0.02504 -0.0098,-0.0293 -0.09794,-0.13058 -0.143931,-0.165779 -0.150391,-0.171875 -0.429126,-0.49569 -0.871325,-0.983146 -1.353516,-1.455078 z m -0.697266,3.578125 c 0.178953,0.193455 0.362511,0.376279 0.539063,0.580078 l 0.08984,0.105469 c 3.253363,3.787776 5.269205,8.645617 5.478516,13.978515 0.01,0.32 0.01953,0.625313 0.01953,0.914063 0,1.494841 -0.235168,2.915853 -0.511718,4.320312 -1.533038,0.330633 -3.095276,0.59961 -4.738282,0.59961 -0.587742,0 -1.159348,-0.01878 -1.703125,-0.07227 l -0.0293,-0.0039 -0.02734,-0.002 c -0.768245,-0.04573 -1.539101,-0.145992 -2.310547,-0.28711 l -0.0039,-0.002 h -0.002 c -4.077847,-0.724757 -7.707629,-2.612916 -10.728515,-5.191406 0.1813,-0.556485 0.394107,-1.098758 0.517578,-1.679688 v -0.0039 c 0.294439,-1.299015 0.447266,-2.648429 0.447266,-4.027344 0,-2.645447 -0.716154,-5.075064 -1.716797,-7.355468 1.39337,0.232649 2.813267,0.384765 4.267578,0.384765 0.925492,0 1.836767,-0.05379 2.732422,-0.148437 2.717221,-0.278214 5.278254,-1.051971 7.679687,-2.109375 z"
     inkscape:label="Outline" />
  <g
     id="g21"
     inkscape:label="Filler"
     style="display:none;stroke:none">
    <path
       style="baseline-shift:baseline;display:inline;overflow:visible;vector-effect:none;fill:#161616;stroke:none;stroke-width:3px;stroke-miterlimit:10;enable-background:accumulate;stop-color:#000000"
       d="m 67.1,62.48 c 0,1.95 -0.23,3.84 -0.67,5.65 -1.94,0.51 -3.98,0.77 -6.08,0.77 -0.62,0 -1.24,-0.02 -1.85,-0.08 -0.84,-0.05 -1.67,-0.16 -2.49,-0.31 -4.67,-0.83 -8.87,-2.99 -12.21,-6.07 0.34,-0.84 0.61,-1.71 0.8,-2.61 0.27,-1.19 0.41,-2.43 0.41,-3.7 0,-3.51 -1.05,-6.76 -2.87,-9.47 2.19,0.65 4.52,1 6.92,1 0.87,0 1.73,-0.05 2.58,-0.14 2.93,-0.3 5.71,-1.13 8.24,-2.38 0.47,0.46 0.91,0.94 1.34,1.44 0.01,0.01 0.02,0.02 0.02,0.03 3.47,4.04 5.62,9.23 5.84,14.91 0.01,0.32 0.02,0.64 0.02,0.96 z"
       id="path8" />
    <path
       style="baseline-shift:baseline;display:inline;overflow:visible;vector-effect:none;fill:#161616;stroke:none;stroke-width:3px;stroke-miterlimit:10;enable-background:accumulate;stop-color:#000000"
       d="m 30.39,59.83 c 0.19,0.9 0.46,1.77 0.8,2.61 -3.34,3.08 -7.54,5.24 -12.21,6.07 -0.82,0.15 -1.65,0.26 -2.49,0.31 -0.61,0.06 -1.23,0.08 -1.85,0.08 -2.1,0 -4.13,-0.26 -6.07,-0.76 C 8.13,66.33 7.9,64.43 7.9,62.48 c 0,-0.32 0.01,-0.64 0.02,-0.96 0.22,-5.68 2.37,-10.87 5.83,-14.91 0,-0.01 0.01,-0.02 0.02,-0.03 0.43,-0.5 0.88,-0.98 1.34,-1.44 2.53,1.25 5.31,2.08 8.24,2.38 0.85,0.09 1.71,0.14 2.58,0.14 2.4,0 4.73,-0.35 6.92,-1 -1.82,2.71 -2.87,5.96 -2.87,9.47 0,1.27 0.14,2.51 0.41,3.7 z"
       id="path10" />
    <path
       style="baseline-shift:baseline;display:inline;overflow:visible;vector-effect:none;fill:#161616;stroke:none;stroke-width:3px;stroke-miterlimit:10;enable-background:accumulate;stop-color:#000000"
       d="m 73.48,23.87 v 0 c -0.09,3.82 -1.06,7.4 -2.72,10.58 v 0 c -2.36,4.57 -6.12,8.29 -10.71,10.6 -0.06,0.04 -0.11,0.06 -0.17,0.09 -2.53,1.25 -5.31,2.08 -8.24,2.38 -0.85,0.09 -1.71,0.14 -2.58,0.14 -2.4,0 -4.73,-0.35 -6.92,-1 -0.3,-0.46 -0.63,-0.91 -0.99,-1.34 -0.3,-0.38 -0.62,-0.74 -0.96,-1.08 -0.04,-0.05 -0.09,-0.09 -0.13,-0.14 -0.19,-0.18 -0.38,-0.37 -0.57,-0.55 -0.15,-0.13 -0.29,-0.26 -0.44,-0.38 -0.13,-0.12 -0.26,-0.23 -0.4,-0.33 0.12,-0.12 0.23,-0.25 0.34,-0.38 0.42,-0.53 0.72,-1.15 0.87,-1.82 0.07,-0.32 0.11,-0.64 0.11,-0.98 0,-0.13 -0.01,-0.27 -0.02,-0.4 -0.03,-0.36 -0.1,-0.71 -0.22,-1.04 -0.26,-0.76 -0.71,-1.43 -1.31,-1.93 q 0,0 -0.02,-0.01 c -0.25,-0.24 -0.55,-0.43 -0.86,-0.59 0,-0.02 0,-0.04 0.02,-0.06 0.73,-1.87 1.67,-3.63 2.83,-5.24 2.49,-3.56 5.93,-6.42 9.95,-8.21 v 0 c 1.97,-0.9 4.07,-1.53 6.28,-1.87 1.21,-0.18 2.46,-0.28 3.73,-0.28 4.83,0 9.34,1.41 13.13,3.84 z"
       id="path12" />
    <path
       style="baseline-shift:baseline;display:inline;overflow:visible;vector-effect:none;fill:#161616;stroke:none;stroke-width:3px;stroke-miterlimit:10;enable-background:accumulate;stop-color:#000000"
       d="m 35.04,39.26 c -0.01,0.13 -0.02,0.27 -0.02,0.4 0,0.34 0.04,0.66 0.11,0.98 0.15,0.67 0.45,1.29 0.87,1.82 0.11,0.13 0.22,0.26 0.34,0.38 -0.14,0.1 -0.27,0.21 -0.4,0.32 -0.15,0.13 -0.29,0.26 -0.44,0.39 -0.19,0.18 -0.38,0.37 -0.57,0.55 -0.04,0.05 -0.09,0.09 -0.13,0.14 -0.34,0.34 -0.66,0.7 -0.96,1.08 -0.36,0.43 -0.69,0.88 -0.99,1.34 -2.19,0.65 -4.52,1 -6.92,1 -0.87,0 -1.73,-0.05 -2.58,-0.14 -2.93,-0.3 -5.71,-1.13 -8.24,-2.38 C 15.05,45.11 15,45.09 14.94,45.05 10.35,42.74 6.59,39.02 4.24,34.45 2.57,31.27 1.61,27.67 1.52,23.86 c 3.79,-2.43 8.29,-3.83 13.12,-3.83 1.27,0 2.52,0.1 3.73,0.28 h 0.01 c 2.2,0.34 4.31,0.98 6.27,1.86 v 0 c 4.01,1.8 7.45,4.66 9.96,8.21 1.15,1.62 2.1,3.38 2.82,5.25 0.01,0.02 0.02,0.04 0.02,0.06 -0.32,0.16 -0.62,0.36 -0.89,0.6 -0.59,0.51 -1.05,1.17 -1.3,1.93 -0.12,0.33 -0.19,0.68 -0.22,1.04 z"
       id="path14" />
    <path
       style="baseline-shift:baseline;display:inline;overflow:visible;vector-effect:none;fill:#161616;stroke:none;stroke-width:3px;stroke-miterlimit:10;enable-background:accumulate;stop-color:#000000"
       d="m 45.01,56.13 c 0,1.27 -0.14,2.51 -0.41,3.7 -0.19,0.9 -0.46,1.77 -0.8,2.61 -1.27,3.2 -3.49,5.93 -6.3,7.84 -2.82,-1.9 -5.04,-4.63 -6.31,-7.84 -0.34,-0.84 -0.61,-1.71 -0.8,-2.61 -0.27,-1.19 -0.41,-2.43 -0.41,-3.7 0,-3.51 1.05,-6.76 2.87,-9.47 0.3,-0.46 0.63,-0.91 0.99,-1.34 0.3,-0.38 0.62,-0.74 0.96,-1.08 0.04,-0.05 0.09,-0.09 0.13,-0.14 0.19,-0.18 0.38,-0.37 0.57,-0.55 0.15,-0.13 0.29,-0.26 0.44,-0.39 0.13,-0.11 0.26,-0.22 0.4,-0.32 0.34,0.34 0.73,0.62 1.16,0.83 0.43,-0.22 0.82,-0.5 1.15,-0.83 0.14,0.1 0.27,0.21 0.4,0.33 0.15,0.12 0.29,0.25 0.44,0.38 0.19,0.18 0.38,0.37 0.57,0.55 0.04,0.05 0.09,0.09 0.13,0.14 0.34,0.34 0.66,0.7 0.96,1.08 0.36,0.43 0.69,0.88 0.99,1.34 1.82,2.71 2.87,5.96 2.87,9.47 z"
       id="path16" />
    <path
       style="baseline-shift:baseline;display:inline;overflow:visible;vector-effect:none;fill:#161616;stroke:none;stroke-width:3px;stroke-miterlimit:10;enable-background:accumulate;stop-color:#000000"
       d="m 39.97,39.66 c 0,0.34 -0.04,0.66 -0.11,0.98 -0.15,0.67 -0.45,1.29 -0.87,1.82 -0.11,0.13 -0.22,0.26 -0.34,0.38 -0.33,0.33 -0.72,0.61 -1.15,0.83 C 37.07,43.46 36.68,43.18 36.34,42.84 36.22,42.72 36.11,42.59 36,42.46 35.58,41.93 35.28,41.31 35.13,40.64 35.06,40.32 35.02,40 35.02,39.66 c 0,-0.13 0.01,-0.27 0.02,-0.4 0.03,-0.36 0.1,-0.71 0.22,-1.04 0.25,-0.76 0.71,-1.42 1.3,-1.93 0.27,-0.24 0.57,-0.44 0.89,-0.6 0.02,-0.02 0.03,-0.02 0.05,-0.03 0.01,0.01 0.03,0.02 0.04,0.03 0.31,0.16 0.61,0.35 0.86,0.59 q 0,0 0.02,0.01 c 0.6,0.5 1.05,1.17 1.31,1.93 0.12,0.33 0.19,0.68 0.22,1.04 0.01,0.13 0.02,0.27 0.02,0.4 z"
       id="path18" />
    <path
       style="baseline-shift:baseline;display:inline;overflow:visible;vector-effect:none;fill:#161616;stroke:none;stroke-width:3px;stroke-miterlimit:10;enable-background:accumulate;stop-color:#000000"
       d="m 24.650144,22.17 v 0 c 4.02,1.8 7.46,4.66 9.95,8.22 1.16,1.61 2.1,3.37 2.83,5.24 0.02,0.01 0.04,0.02 0.06,0.03 0.02,-0.01 0.05,-0.02 0.07,-0.03 0.72,-1.87 1.67,-3.63 2.82,-5.25 2.51,-3.55 5.95,-6.41 9.96,-8.2 v 0 c -0.09,-2.14 -0.45,-4.19 -1.06,-6.15 -0.6,-1.97 -1.45,-3.83 -2.51,-5.56 -0.01,-0.01 -0.01,-0.02 -0.02,-0.03 -2.01,-3.27 -4.77,-6.03 -8.04,-8.04 -0.01,-0.01 -0.02,-0.01 -0.03,-0.02 -0.39,-0.24 -0.78,-0.46 -1.19,-0.68 -0.41,0.22 -0.81,0.45 -1.2,0.7 l -0.03,0.02 c -3.26,2 -6.02,4.76 -8.02,8.02 v 0.02 c -1.08,1.73 -1.93,3.6 -2.53,5.57 -0.61,1.96 -0.97,4.01 -1.06,6.14 z"
       id="path20" />
  </g>
  <g
     id="g22"
     inkscape:label="Outline"
     style="display:none">
    <path
       style="baseline-shift:baseline;display:inline;overflow:visible;vector-effect:none;fill:#ffffff;stroke:none;stroke-width:3px;stroke-miterlimit:10;enable-background:accumulate;stop-color:#000000"
       d="m 60.169922,43.324219 -0.955078,0.470703 c -2.375187,1.173511 -4.981756,1.951184 -7.728516,2.232422 h -0.002 l -0.002,0.002 c -0.802497,0.08497 -1.609346,0.130859 -2.421875,0.130859 -2.254167,0 -4.44155,-0.328283 -6.494141,-0.9375 l -3.996094,-1.1875 2.324219,3.460938 c 1.659411,2.47088 2.615235,5.423911 2.615235,8.634765 0,1.159764 -0.128042,2.28735 -0.373047,3.367188 l -0.002,0.01172 -0.002,0.0098 c -0.171031,0.810148 -0.414181,1.595307 -0.722656,2.357422 l -0.390625,0.962891 0.763672,0.703125 c 3.543768,3.267906 8.005956,5.562015 12.964844,6.443359 0.860466,0.15715 1.741674,0.273529 2.644531,0.328125 0.662681,0.06346 1.317541,0.08594 1.957031,0.08594 2.22381,0 4.392105,-0.276444 6.460938,-0.820313 l 0.865234,-0.226562 0.210938,-0.869141 c 0.468273,-1.926306 0.71289,-3.935958 0.71289,-6.003906 0,-0.35125 -0.0095,-0.687813 -0.01953,-1.007813 l -0.002,-0.0059 v -0.0039 C 68.346421,55.480722 66.084356,50.0016 62.443359,45.724609 c -0.0034,-0.0046 -0.0066,-0.02504 -0.0098,-0.0293 -0.09794,-0.13058 -0.143931,-0.165779 -0.150391,-0.171875 -0.429126,-0.49569 -0.871325,-0.983146 -1.353516,-1.455078 z m -0.697266,3.578125 c 0.178953,0.193455 0.362511,0.376279 0.539063,0.580078 l 0.08984,0.105469 c 3.253363,3.787776 5.269205,8.645617 5.478516,13.978515 0.01,0.32 0.01953,0.625313 0.01953,0.914063 0,1.494841 -0.235168,2.915853 -0.511718,4.320312 -1.533038,0.330633 -3.095276,0.59961 -4.738282,0.59961 -0.587742,0 -1.159348,-0.01878 -1.703125,-0.07227 l -0.0293,-0.0039 -0.02734,-0.002 c -0.768245,-0.04573 -1.539101,-0.145992 -2.310547,-0.28711 l -0.0039,-0.002 h -0.002 c -4.077847,-0.724757 -7.707629,-2.612916 -10.728515,-5.191406 0.1813,-0.556485 0.394107,-1.098758 0.517578,-1.679688 v -0.0039 c 0.294439,-1.299015 0.447266,-2.648429 0.447266,-4.027344 0,-2.645447 -0.716154,-5.075064 -1.716797,-7.355468 1.39337,0.232649 2.813267,0.384765 4.267578,0.384765 0.925492,0 1.836767,-0.05379 2.732422,-0.148437 2.717221,-0.278214 5.278254,-1.051971 7.679687,-2.109375 z"
       id="path9" />
    <path
       style="baseline-shift:baseline;display:inline;overflow:visible;vector-effect:none;fill:#ffffff;stroke:none;stroke-width:3px;stroke-miterlimit:10;enable-background:accumulate;stop-color:#000000"
       d="m 14.810547,43.318359 -0.761719,0.761719 c -0.457041,0.457041 -0.904834,0.938279 -1.339844,1.439453 -5.9e-5,5.9e-5 -0.0019,0.0019 -0.002,0.002 -0.006,0.0057 -0.05182,0.0424 -0.15039,0.173828 -0.003,0.004 -0.0066,0.02308 -0.0098,0.02734 -3.6317722,4.276972 -5.8932387,9.756579 -6.125,15.740235 v 0.0039 l -0.00195,0.0059 c -0.01,0.32 -0.019531,0.656563 -0.019531,1.007813 0,2.067948 0.2443178,4.086133 0.7128906,6.013672 l 0.2109375,0.873046 0.8710938,0.22461 c 2.0631911,0.53175 4.2215021,0.808594 6.4453121,0.808594 0.63949,0 1.29435,-0.02248 1.957031,-0.08594 0.902857,-0.0546 1.784065,-0.170975 2.644531,-0.328125 4.958889,-0.881344 9.421076,-3.175453 12.964844,-6.443359 L 32.970625,62.83992 32.58,61.877029 c -0.308475,-0.762115 -0.551625,-1.547274 -0.722656,-2.357422 l -0.002,-0.0098 -0.002,-0.01172 c -0.245006,-1.079838 -0.373047,-2.207424 -0.373047,-3.367188 0,-3.210854 0.955824,-6.163885 2.615234,-8.634765 l 2.324219,-3.460938 -3.996094,1.1875 c -2.052591,0.609217 -4.239974,0.9375 -6.494141,0.9375 -0.812528,0 -1.619378,-0.04589 -2.421875,-0.130859 l -0.002,-0.002 h -0.0039 c -2.74676,-0.281238 -5.351375,-1.058911 -7.726562,-2.232422 z m 0.707031,3.583985 c 2.399722,1.05665 4.958717,1.830748 7.673828,2.109375 0.897504,0.09503 1.81081,0.148437 2.738281,0.148437 1.453651,0 2.872854,-0.152323 4.265625,-0.384765 -1.000559,2.280325 -1.714843,4.710138 -1.714843,7.355468 0,1.378915 0.152826,2.728329 0.447265,4.027344 2.82e-4,0.0012 -2.82e-4,0.0027 0,0.0039 0.123586,0.581469 0.334106,1.124663 0.515625,1.681641 -3.020504,2.577548 -6.649645,4.464862 -10.726562,5.189453 h -0.0039 l -0.002,0.002 c -0.771446,0.141118 -1.542302,0.241381 -2.310546,0.28711 l -0.0293,0.002 -0.02734,0.0039 c -0.543777,0.05349 -1.115383,0.07227 -1.703125,0.07227 -1.640723,0 -3.19622,-0.266652 -4.7285156,-0.591797 -0.2764423,-1.406497 -0.5117188,-2.833337 -0.5117188,-4.328125 0,-0.28875 0.00953,-0.594063 0.019531,-0.914063 0.2093118,-5.3329 2.2243554,-10.192216 5.4687504,-13.980469 l 0.06836,-0.08008 c 0.179479,-0.207306 0.373282,-0.402142 0.560547,-0.603515 z"
       id="path11" />
    <path
       style="baseline-shift:baseline;display:inline;overflow:visible;vector-effect:none;fill:#ffffff;stroke:none;stroke-width:3px;stroke-miterlimit:10;enable-background:accumulate;stop-color:#000000"
       d="m 60.349609,18.529297 c -1.34874,0 -2.672432,0.106649 -3.951172,0.296875 h -0.002 l -0.0039,0.002 c -2.341383,0.360213 -4.574245,1.030615 -6.667969,1.986328 -4.262671,1.899483 -7.90745,4.926563 -10.550781,8.699219 -5.18e-4,7.18e-4 -0.0014,0.0012 -0.002,0.002 -1.237696,1.718243 -2.237405,3.589847 -3.009766,5.568359 L 36.5,34.570312 c -0.373553,0.373554 -0.460938,1.099141 -0.460938,1.119141 v 0.914063 l 0.8125,0.419921 c 0.230412,0.118922 0.406927,0.239165 0.509766,0.337891 l 0.125,0.121094 c 0.359904,0.311596 0.654089,0.725354 0.824219,1.222656 l 0.0039,0.01367 0.0059,0.01367 c 0.06762,0.185944 0.114121,0.404598 0.134766,0.652344 0.009,0.118772 0.01563,0.224126 0.01563,0.27539 0,0.219681 -0.02458,0.423201 -0.07422,0.652344 -1.63e-4,7.55e-4 -0.0018,0.0012 -0.002,0.002 -0.09949,0.442551 -0.297323,0.853077 -0.576172,1.207031 -0.09329,0.109682 -0.17401,0.203308 -0.228515,0.257813 l -1.251953,1.251953 1.439453,1.029297 c 0.07402,0.05287 0.156378,0.119109 0.255859,0.210937 l 0.03906,0.03711 0.04102,0.0332 c 0.08744,0.06995 0.211628,0.183419 0.371094,0.322265 0.162717,0.154973 0.342125,0.332931 0.541016,0.521485 0.0015,0.0014 0.0024,0.0025 0.0039,0.0039 l 0.04102,0.05273 0.05859,0.05859 c 0.298406,0.298406 0.579702,0.614758 0.84375,0.949219 l 0.01367,0.01563 L 40,46.283203 c 0.318973,0.380996 0.613241,0.78197 0.882812,1.195313 l 0.302735,0.46289 0.527344,0.15625 c 2.327408,0.690784 4.801823,1.0625 7.347656,1.0625 0.925492,0 1.836767,-0.05379 2.732422,-0.148437 3.11324,-0.318762 6.06714,-1.200855 8.751953,-2.527344 l 0.002,-0.002 h 0.0039 c 2.84e-4,-1.42e-4 0.130429,-0.06854 0.253906,-0.140625 4.833478,-2.454724 8.793635,-6.375827 11.285157,-11.197266 1.762786,-3.376903 2.795167,-7.186627 2.890625,-11.238281 L 75,23.0625 74.289062,22.607422 C 70.265839,20.027888 65.471535,18.529297 60.349609,18.529297 Z m 0,3 c 4.21748,0 8.110286,1.236662 11.501953,3.228515 -0.209405,3.229184 -1.003325,6.280585 -2.421875,8.998047 v 0.0039 l -0.002,0.002 c -2.214236,4.287737 -5.746541,7.78205 -10.052734,9.949218 l -0.08008,0.04102 -0.07617,0.05078 c 0.06801,-0.04534 0.109863,-0.06372 -0.0098,-0.0039 l 0.0059,-0.0039 c -2.375187,1.173511 -4.981756,1.951184 -7.728516,2.232422 h -0.002 l -0.002,0.002 c -0.802497,0.08497 -1.609346,0.130859 -2.421875,0.130859 -2.109076,0 -4.139832,-0.340913 -6.076172,-0.876953 -0.218799,-0.305998 -0.426239,-0.615951 -0.671875,-0.910156 -0.29729,-0.375266 -0.618235,-0.729255 -0.951172,-1.070313 l -0.04102,-0.04492 c -0.06465,-0.07416 -0.156215,-0.178668 -0.08984,-0.0957 l -0.06445,-0.08008 -0.07422,-0.07031 c -0.151813,-0.143823 -0.325786,-0.316193 -0.509766,-0.492188 0.281022,-0.502521 0.614108,-0.980645 0.742188,-1.552734 v -0.002 l 0.002,-0.0039 c 0.08912,-0.407402 0.144531,-0.843134 0.144531,-1.300781 0,-0.206923 -0.01494,-0.37976 -0.02539,-0.515625 v -0.0039 -0.0059 c -0.0387,-0.464445 -0.131858,-0.937836 -0.298828,-1.404297 -0.329433,-0.960711 -0.92184,-1.807468 -1.689453,-2.480469 0.617107,-1.392781 1.27282,-2.764415 2.150391,-3.982422 l 0.0059,-0.0098 0.0059,-0.0078 c 2.334364,-3.337486 5.561976,-6.021382 9.330078,-7.699219 l 0.0078,-0.0039 0.0059,-0.002 c 1.844177,-0.842518 3.808856,-1.432583 5.884765,-1.751953 1.138892,-0.169064 2.31333,-0.263672 3.501953,-0.263672 z"
       id="path13" />
    <path
       style="baseline-shift:baseline;display:inline;overflow:visible;vector-effect:none;fill:#ffffff;stroke:none;stroke-width:3px;stroke-miterlimit:10;enable-background:accumulate;stop-color:#000000"
       d="m 14.640625,18.529297 c -5.1198551,0 -9.9058996,1.488464 -13.9296875,4.068359 L 0,23.052734 0.01953125,23.894531 c 0.09542023,4.039457 1.11593315,7.868881 2.89257815,11.251953 2.4821301,4.821654 6.4412513,8.741245 11.2734376,11.195313 0.123478,0.07209 0.253622,0.140483 0.253906,0.140625 h 0.002 l 0.0039,0.002 c 2.683142,1.325663 5.634988,2.20808 8.746093,2.527344 0.897504,0.09503 1.81081,0.148437 2.738281,0.148437 2.545834,0 5.020248,-0.371716 7.347657,-1.0625 l 0.527343,-0.15625 0.300782,-0.46289 c 0.269571,-0.413343 0.565792,-0.814317 0.884765,-1.195313 l 0.01367,-0.01758 0.01367,-0.01563 c 0.264048,-0.334461 0.545345,-0.650813 0.84375,-0.949219 l 0.05859,-0.05859 0.04102,-0.05273 0.002,-0.002 0.002,-0.002 c 0.201083,-0.190633 0.382767,-0.371229 0.546875,-0.527344 0.006,-0.0057 0.01361,-0.01393 0.01953,-0.01953 0.143306,-0.125685 0.269028,-0.240009 0.376953,-0.333985 l 0.0059,-0.0039 c 0.0024,-0.002 0.0055,-0.0058 0.0078,-0.0078 0.121253,-0.102402 0.218467,-0.181996 0.289062,-0.232422 l 1.441407,-1.029297 -1.251953,-1.251953 c -0.0545,-0.0545 -0.135221,-0.148131 -0.228516,-0.257813 -0.278849,-0.353954 -0.476683,-0.76448 -0.576172,-1.207031 -1.94e-4,-8.62e-4 -0.0018,-0.0011 -0.002,-0.002 -0.04964,-0.229143 -0.07422,-0.432663 -0.07422,-0.652344 0,-0.05126 0.0066,-0.156618 0.01563,-0.27539 0.02065,-0.247746 0.06715,-0.4664 0.134766,-0.652344 l 0.0078,-0.02148 0.0078,-0.02148 c 0.159884,-0.486048 0.458023,-0.92207 0.855469,-1.265625 l 0.0078,-0.0059 0.0078,-0.0078 c 0.166909,-0.148363 0.356256,-0.274808 0.564453,-0.378906 l 0.828125,-0.414063 V 35.68936 c 0,-0.489524 -0.142138,-0.649311 -0.167969,-0.6875 -0.760761,-1.951983 -1.746295,-3.796239 -2.947266,-5.488281 v -0.002 c -2.663655,-3.76688 -6.311591,-6.799292 -10.570312,-8.710938 -2.079054,-0.933452 -4.316575,-1.611372 -6.654297,-1.972656 l -0.01953,-0.002 -0.09375,-0.01563 h -0.113282 -0.01367 c -1.211938,-0.170659 -2.455126,-0.28125 -3.728516,-0.28125 z m 0,3 c 1.19126,0 2.366552,0.0939 3.507812,0.263672 h 0.0039 c 2.061599,0.31879 4.042427,0.919798 5.882812,1.746093 3.760837,1.688157 6.993338,4.374456 9.34961,7.707032 l 0.002,0.002 c 0.873319,1.230241 1.527025,2.598843 2.138672,3.984375 -0.74663,0.665732 -1.35299,1.511775 -1.683594,2.509765 -0.164345,0.462722 -0.258491,0.931974 -0.296875,1.392579 v 0.0059 0.0039 c -0.01045,0.135865 -0.02539,0.308702 -0.02539,0.515625 0,0.457647 0.05541,0.893379 0.144531,1.300781 l 0.002,0.0039 v 0.002 c 0.128079,0.572089 0.461165,1.050213 0.742187,1.552734 -0.18398,0.175995 -0.357953,0.348365 -0.509766,0.492188 l -0.07422,0.07031 -0.06641,0.08008 c 0.01264,-0.01581 -0.02528,0.02787 -0.01758,0.01758 -0.01725,0.01725 -0.03167,0.03734 -0.04883,0.05469 -0.02377,0.02426 0.0235,-0.03914 -0.0625,0.06836 -0.332936,0.341058 -0.653881,0.695047 -0.951172,1.070313 -0.245636,0.294205 -0.453075,0.604158 -0.671875,0.910156 -1.93634,0.53604 -3.967095,0.876953 -6.076172,0.876953 -0.812528,0 -1.619378,-0.04589 -2.421875,-0.130859 l -0.002,-0.002 h -0.0039 c -2.74676,-0.281238 -5.351375,-1.058911 -7.726562,-2.232422 l 0.0059,0.0039 c -0.119628,-0.05981 -0.07777,-0.04143 -0.0098,0.0039 l -0.07617,-0.05078 -0.08008,-0.04102 C 11.309042,41.543769 7.7780402,38.049401 5.5742187,33.763672 l -0.00391,-0.0059 -0.00195,-0.0059 C 4.144127,31.039942 3.3566797,27.974583 3.1484375,24.748047 6.5380667,22.757968 10.421572,21.529297 14.640625,21.529297 Z m 20.9375,13.625 c -0.0018,0.0015 -0.0021,0.0043 -0.0039,0.0059 -0.0036,0.0032 -0.0081,0.0046 -0.01172,0.0078 z"
       id="path15" />
    <path
       style="baseline-shift:baseline;display:inline;overflow:visible;vector-effect:none;fill:#ffffff;stroke:none;stroke-width:3px;stroke-miterlimit:10;enable-background:accumulate;stop-color:#000000"
       d="m 36.501953,40.880859 -1.033203,0.738282 c -0.205978,0.147127 -0.368047,0.286484 -0.498047,0.396484 l -0.0059,0.0059 -0.0078,0.0059 c -0.174934,0.151609 -0.314387,0.280281 -0.439453,0.388672 l -0.02539,0.02148 -0.02344,0.02344 c -0.210136,0.199077 -0.400448,0.389858 -0.570313,0.550782 l -0.07422,0.07031 -0.06641,0.08008 c 0.01264,-0.01581 -0.02528,0.02787 -0.01758,0.01758 -0.01725,0.01725 -0.03167,0.03734 -0.04883,0.05469 -0.02377,0.02426 0.0235,-0.03914 -0.0625,0.06836 -0.332936,0.341058 -0.653881,0.695047 -0.951172,1.070313 -0.391778,0.469244 -0.748125,0.955434 -1.072265,1.451172 -1.98059,2.949119 -3.125,6.497495 -3.125,10.30664 0,1.378915 0.152826,2.728329 0.447265,4.027344 2.82e-4,0.0012 -2.82e-4,0.0027 0,0.0039 0.207974,0.978514 0.500246,1.921976 0.867188,2.830078 5.42e-4,0.0014 0.0014,0.0025 0.002,0.0039 1.383227,3.493731 3.796788,6.459951 6.865234,8.527343 l 0.841797,0.56836 0.839844,-0.570313 c 3.053406,-2.075447 5.461987,-5.037889 6.845703,-8.519531 V 63 c 0.368438,-0.910534 0.664468,-1.856527 0.873047,-2.837891 v -0.0039 c 0.294439,-1.299015 0.447266,-2.648429 0.447266,-4.027344 0,-3.809145 -1.144411,-7.357521 -3.125,-10.30664 -0.324141,-0.495738 -0.680488,-0.981928 -1.072266,-1.451172 -0.309919,-0.391207 -0.643551,-0.761235 -0.992188,-1.115235 -0.06465,-0.07416 -0.156215,-0.178668 -0.08984,-0.0957 l -0.06445,-0.08008 -0.07422,-0.07031 c -0.169877,-0.160933 -0.36019,-0.351714 -0.570326,-0.550791 l -0.02344,-0.02344 -0.02539,-0.02148 C 40.36866,42.325887 40.22608,42.199663 40.068357,42.06836 l -0.0059,-0.0039 c -0.159294,-0.1468 -0.337077,-0.299642 -0.541016,-0.445312 l -1.033203,-0.738282 -0.898437,0.898438 c -0.02586,0.02586 -0.06642,0.04317 -0.09375,0.06836 -0.02933,-0.02704 -0.06724,-0.0399 -0.0957,-0.06836 z m -0.06445,3.847657 c 0.142784,0.08584 0.253947,0.215635 0.404297,0.289062 l 0.673828,0.330078 0.667969,-0.341797 c 0.138003,-0.07061 0.242732,-0.191066 0.375,-0.271484 0.144831,0.139565 0.294965,0.288271 0.466797,0.451172 0.0015,0.0014 0.0024,0.0025 0.0039,0.0039 l 0.04102,0.05273 0.05859,0.05859 c 0.298406,0.298406 0.579702,0.614758 0.84375,0.949219 l 0.01367,0.01563 L 40,46.283203 c 0.318973,0.380996 0.613241,0.78197 0.882812,1.195313 l 0.0059,0.0098 0.0059,0.0078 c 1.659411,2.47088 2.615235,5.423911 2.615235,8.634765 0,1.159764 -0.128042,2.28735 -0.373047,3.367188 l -0.002,0.01172 -0.002,0.0098 c -0.171031,0.810148 -0.414181,1.595307 -0.722656,2.357422 l -0.002,0.0059 -0.002,0.0039 c -1.013763,2.554364 -2.781792,4.691 -4.908203,6.376953 -2.131227,-1.678134 -3.899746,-3.811256 -4.914063,-6.375 l -0.002,-0.0059 -0.002,-0.0059 C 32.271403,61.114849 32.028253,60.32969 31.857222,59.519542 l -0.002,-0.0098 -0.002,-0.01172 c -0.245006,-1.079838 -0.373047,-2.207424 -0.373047,-3.367188 0,-3.210854 0.955824,-6.163885 2.615234,-8.634765 l 0.0059,-0.0078 0.0039,-0.0098 c 0.269571,-0.413343 0.565792,-0.814317 0.884765,-1.195313 l 0.01367,-0.01758 0.01367,-0.01563 c 0.264048,-0.334461 0.545345,-0.650813 0.84375,-0.949219 l 0.05859,-0.05859 0.04102,-0.05273 0.002,-0.002 0.002,-0.002 c 0.174024,-0.16498 0.326325,-0.316131 0.472656,-0.457031 z"
       id="path17" />
    <path
       style="baseline-shift:baseline;display:inline;overflow:visible;vector-effect:none;fill:#ffffff;stroke:none;stroke-width:3px;stroke-miterlimit:10;enable-background:accumulate;stop-color:#000000"
       d="m 37.796875,33.833984 -0.966797,0.484375 c 0.158886,-0.07944 -0.244629,0.113771 -0.441406,0.310547 l 0.390625,-0.28125 c -0.427659,0.21383 -0.834852,0.485161 -1.205078,0.8125 -0.777224,0.673399 -1.392278,1.555241 -1.732422,2.582031 -0.164345,0.462722 -0.258491,0.931974 -0.296875,1.392579 v 0.0059 0.0039 c -0.01045,0.135865 -0.02539,0.308702 -0.02539,0.515625 0,0.457647 0.05541,0.893379 0.144531,1.300781 l 0.002,0.0039 v 0.002 c 0.200053,0.89357 0.600486,1.721996 1.158203,2.425781 l 0.01563,0.01758 0.01563,0.01953 c 0.11,0.13 0.244902,0.291778 0.423828,0.470704 0.454385,0.454385 0.981431,0.833409 1.5625,1.117187 l 0.673828,0.330078 0.667969,-0.341797 c 0.56203,-0.28755 1.079492,-0.657617 1.527343,-1.105468 0.178926,-0.178926 0.313829,-0.340703 0.423829,-0.470704 l 0.01563,-0.01953 0.01563,-0.01758 c 0.557716,-0.703785 0.95815,-1.532211 1.158203,-2.425781 v -0.002 l 0.002,-0.0039 c 0.08912,-0.407402 0.144531,-0.843134 0.144531,-1.300781 0,-0.206923 -0.01494,-0.37976 -0.02539,-0.515625 v -0.0039 -0.0059 c -0.0387,-0.464445 -0.131858,-0.937836 -0.298828,-1.404297 -0.339482,-0.990015 -0.936468,-1.875489 -1.740234,-2.556641 -0.291181,-0.273614 -0.5906,-0.443303 -0.884766,-0.613281 z m 1.609375,1.339844 c -0.01169,-0.0099 -0.01361,-0.0273 -0.02539,-0.03711 L 39.246094,35.025391 39.070312,34.9375 Z m -1.912109,2.320313 c 0.355038,0.310732 0.647901,0.718385 0.816406,1.210937 l 0.0039,0.01367 0.0059,0.01367 c 0.06762,0.185944 0.114121,0.404598 0.134766,0.652344 0.009,0.118772 0.01563,0.224126 0.01563,0.27539 0,0.219681 -0.02458,0.423201 -0.07422,0.652344 -1.63e-4,7.55e-4 -0.0018,0.0012 -0.002,0.002 -0.09949,0.442551 -0.297323,0.853077 -0.576172,1.207031 -0.09329,0.109682 -0.17401,0.203308 -0.228515,0.257813 -0.02586,0.02586 -0.06642,0.04317 -0.09375,0.06836 -0.02933,-0.02704 -0.06724,-0.0399 -0.0957,-0.06836 -0.0545,-0.0545 -0.135221,-0.148131 -0.228516,-0.257813 -0.278849,-0.353954 -0.476683,-0.76448 -0.576172,-1.207031 -1.94e-4,-8.62e-4 -0.0018,-0.0011 -0.002,-0.002 -0.04964,-0.229143 -0.07422,-0.432663 -0.07422,-0.652344 0,-0.05126 0.0066,-0.156618 0.01563,-0.27539 0.02065,-0.247746 0.06715,-0.4664 0.134766,-0.652344 l 0.0078,-0.02148 0.0078,-0.02148 c 0.15104,-0.459162 0.443568,-0.86139 0.808594,-1.195312 z"
       id="path19" />
    <path
       style="baseline-shift:baseline;display:inline;overflow:visible;vector-effect:none;fill:#ffffff;stroke:none;stroke-width:3px;stroke-miterlimit:10;enable-background:accumulate;stop-color:#000000"
       d="m 37.5,-0.00195313 -0.708984,0.38085938 c -0.427908,0.22960923 -0.8459,0.46316193 -1.267579,0.72265625 l -0.15039,0.09375 -0.101563,0.1015625 0.222657,-0.1738281 c -0.08184,0.050305 -0.143378,0.1265499 -0.22461,0.1777343 l -0.0098,0.00977 c -0.01517,0.013527 -0.01831,0.00889 -0.0332,0.023437 -0.0036,0.00349 -0.0043,0.00231 -0.0078,0.00586 -3.241061,2.0534736 -5.985589,4.7980014 -8.039063,8.0390626 -0.0036,0.00356 -0.0024,0.00422 -0.0059,0.00781 -0.01459,0.014938 -0.0099,0.017982 -0.02344,0.033203 l -0.0098,0.00977 c -0.05118,0.081232 -0.12743,0.1427701 -0.177734,0.2246094 l 0.173828,-0.2226563 -0.103516,0.1035157 -0.0918,0.1503906 c -0.01227,0.02003 -0.01708,0.044389 -0.0293,0.064453 -3.07e-4,5.045e-4 3.08e-4,0.00145 0,0.00195 -1.106146,1.8164268 -2.005497,3.7692858 -2.636718,5.8417968 -0.646658,2.08064 -1.029777,4.259244 -1.125,6.523437 l -0.04102,1.017579 0.929687,0.414062 c 3.758512,1.67774 6.989432,4.36469 9.345704,7.697266 l 0.002,0.002 c 1.078869,1.519799 1.968153,3.170244 2.642578,4.921875 l 0.208984,0.541015 0.521485,0.259766 c 0.198885,0.09944 0.229198,0.110693 0.07031,0.03125 L 37.5,37.337891 l 1.248047,-0.625 0.208984,-0.53711 c 0.687317,-1.76066 1.568805,-3.407036 2.650391,-4.908203 l 0.0059,-0.0098 0.0059,-0.0078 c 2.334364,-3.337486 5.563565,-6.02269 9.333984,-7.710938 L 51.88094,23.123025 51.83797,22.1074 C 51.742625,19.852813 51.361498,17.674384 50.714844,15.59375 50.1311,13.677125 49.263907,11.878207 48.25,10.169922 V 10.015625 L 48.029297,9.65625 C 45.904974,6.1936042 42.976318,3.2649476 39.513672,1.140625 l -0.0039,-0.00391 C 39.079359,0.86081679 38.644626,0.61266492 38.208984,0.37890625 Z M 37.4941,3.4316406 c 0.130295,0.077702 0.270504,0.1497122 0.396484,0.2304688 l 0.03125,0.021484 0.02344,0.015625 c 3.033162,1.8608354 5.600578,4.4331319 7.472657,7.4589846 l 0.06055,0.0957 c 1.010089,1.618013 1.805145,3.367518 2.367187,5.212891 v 0.0039 l 0.002,0.0059 c 0.492455,1.582316 0.724545,3.25388 0.857422,4.958985 -3.792735,1.91815 -7.11611,4.631153 -9.53125,8.078125 -5.18e-4,7.18e-4 -0.0014,0.0012 -0.002,0.002 -0.688144,0.955322 -1.131273,2.053312 -1.673828,3.095703 -0.54203,-1.042252 -0.986166,-2.14257 -1.664063,-3.097656 v -0.002 c -2.432052,-3.439353 -5.758204,-6.152807 -9.548828,-8.066407 0.13283,-1.712104 0.364837,-3.386016 0.857422,-4.96875 l 0.002,-0.0059 v -0.0039 c 0.560599,-1.840632 1.355772,-3.579479 2.34961,-5.203125 l 0.02344,-0.03906 c 1.886394,-3.06891 4.479918,-5.6604808 7.548828,-7.546875 l 0.07227,-0.044922 C 37.252927,3.562965 37.378034,3.4991638 37.49416,3.4316401 Z m -0.123047,0.00977 -0.05273,0.042969 0.01172,-0.013672 c 0.01888,-0.016825 0.02262,-0.010904 0.04102,-0.029297 z m -8.048828,8.0371094 -0.04102,0.05273 c 0.01834,-0.01834 0.01252,-0.0222 0.0293,-0.04102 z"
       id="path21" />
  </g>
  <g
     id="g42"
     inkscape:label="Outline"
     style="display:none">
    <path
       style="baseline-shift:baseline;display:inline;overflow:visible;vector-effect:none;fill:#ffffff;stroke:none;stroke-width:3px;stroke-miterlimit:10;enable-background:accumulate;stop-color:#000000"
       d="m 60.169922,43.324219 -0.955078,0.470703 c -2.375187,1.173511 -4.981756,1.951184 -7.728516,2.232422 h -0.002 l -0.002,0.002 c -0.802497,0.08497 -1.609346,0.130859 -2.421875,0.130859 -2.254167,0 -4.44155,-0.328283 -6.494141,-0.9375 l -3.996094,-1.1875 2.324219,3.460938 c 1.659411,2.47088 2.615235,5.423911 2.615235,8.634765 0,1.159764 -0.128042,2.28735 -0.373047,3.367188 l -0.002,0.01172 -0.002,0.0098 c -0.171031,0.810148 -0.414181,1.595307 -0.722656,2.357422 l -0.390625,0.962891 0.763672,0.703125 c 3.543768,3.267906 8.005956,5.562015 12.964844,6.443359 0.860466,0.15715 1.741674,0.273529 2.644531,0.328125 0.662681,0.06346 1.317541,0.08594 1.957031,0.08594 2.22381,0 4.392105,-0.276444 6.460938,-0.820313 l 0.865234,-0.226562 0.210938,-0.869141 c 0.468273,-1.926306 0.71289,-3.935958 0.71289,-6.003906 0,-0.35125 -0.0095,-0.687813 -0.01953,-1.007813 l -0.002,-0.0059 v -0.0039 C 68.346421,55.480722 66.084356,50.0016 62.443359,45.724609 c -0.0034,-0.0046 -0.0066,-0.02504 -0.0098,-0.0293 -0.09794,-0.13058 -0.143931,-0.165779 -0.150391,-0.171875 -0.429126,-0.49569 -0.871325,-0.983146 -1.353516,-1.455078 z m -0.697266,3.578125 c 0.178953,0.193455 0.362511,0.376279 0.539063,0.580078 l 0.08984,0.105469 c 3.253363,3.787776 5.269205,8.645617 5.478516,13.978515 0.01,0.32 0.01953,0.625313 0.01953,0.914063 0,1.494841 -0.235168,2.915853 -0.511718,4.320312 -1.533038,0.330633 -3.095276,0.59961 -4.738282,0.59961 -0.587742,0 -1.159348,-0.01878 -1.703125,-0.07227 l -0.0293,-0.0039 -0.02734,-0.002 c -0.768245,-0.04573 -1.539101,-0.145992 -2.310547,-0.28711 l -0.0039,-0.002 h -0.002 c -4.077847,-0.724757 -7.707629,-2.612916 -10.728515,-5.191406 0.1813,-0.556485 0.394107,-1.098758 0.517578,-1.679688 v -0.0039 c 0.294439,-1.299015 0.447266,-2.648429 0.447266,-4.027344 0,-2.645447 -0.716154,-5.075064 -1.716797,-7.355468 1.39337,0.232649 2.813267,0.384765 4.267578,0.384765 0.925492,0 1.836767,-0.05379 2.732422,-0.148437 2.717221,-0.278214 5.278254,-1.051971 7.679687,-2.109375 z"
       id="path36" />
    <path
       style="baseline-shift:baseline;display:inline;overflow:visible;vector-effect:none;fill:#ffffff;stroke:none;stroke-width:3px;stroke-miterlimit:10;enable-background:accumulate;stop-color:#000000"
       d="m 14.810547,43.318359 -0.761719,0.761719 c -0.457041,0.457041 -0.904834,0.938279 -1.339844,1.439453 -5.9e-5,5.9e-5 -0.0019,0.0019 -0.002,0.002 -0.006,0.0057 -0.05182,0.0424 -0.15039,0.173828 -0.003,0.004 -0.0066,0.02308 -0.0098,0.02734 -3.6317722,4.276972 -5.8932387,9.756579 -6.125,15.740235 v 0.0039 l -0.00195,0.0059 c -0.01,0.32 -0.019531,0.656563 -0.019531,1.007813 0,2.067948 0.2443178,4.086133 0.7128906,6.013672 l 0.2109375,0.873046 0.8710938,0.22461 c 2.0631911,0.53175 4.2215021,0.808594 6.4453121,0.808594 0.63949,0 1.29435,-0.02248 1.957031,-0.08594 0.902857,-0.0546 1.784065,-0.170975 2.644531,-0.328125 4.958889,-0.881344 9.421076,-3.175453 12.964844,-6.443359 L 32.970625,62.83992 32.58,61.877029 c -0.308475,-0.762115 -0.551625,-1.547274 -0.722656,-2.357422 l -0.002,-0.0098 -0.002,-0.01172 c -0.245006,-1.079838 -0.373047,-2.207424 -0.373047,-3.367188 0,-3.210854 0.955824,-6.163885 2.615234,-8.634765 l 2.324219,-3.460938 -3.996094,1.1875 c -2.052591,0.609217 -4.239974,0.9375 -6.494141,0.9375 -0.812528,0 -1.619378,-0.04589 -2.421875,-0.130859 l -0.002,-0.002 h -0.0039 c -2.74676,-0.281238 -5.351375,-1.058911 -7.726562,-2.232422 z m 0.707031,3.583985 c 2.399722,1.05665 4.958717,1.830748 7.673828,2.109375 0.897504,0.09503 1.81081,0.148437 2.738281,0.148437 1.453651,0 2.872854,-0.152323 4.265625,-0.384765 -1.000559,2.280325 -1.714843,4.710138 -1.714843,7.355468 0,1.378915 0.152826,2.728329 0.447265,4.027344 2.82e-4,0.0012 -2.82e-4,0.0027 0,0.0039 0.123586,0.581469 0.334106,1.124663 0.515625,1.681641 -3.020504,2.577548 -6.649645,4.464862 -10.726562,5.189453 h -0.0039 l -0.002,0.002 c -0.771446,0.141118 -1.542302,0.241381 -2.310546,0.28711 l -0.0293,0.002 -0.02734,0.0039 c -0.543777,0.05349 -1.115383,0.07227 -1.703125,0.07227 -1.640723,0 -3.19622,-0.266652 -4.7285156,-0.591797 -0.2764423,-1.406497 -0.5117188,-2.833337 -0.5117188,-4.328125 0,-0.28875 0.00953,-0.594063 0.019531,-0.914063 0.2093118,-5.3329 2.2243554,-10.192216 5.4687504,-13.980469 l 0.06836,-0.08008 c 0.179479,-0.207306 0.373282,-0.402142 0.560547,-0.603515 z"
       id="path37" />
    <path
       style="baseline-shift:baseline;display:inline;overflow:visible;vector-effect:none;fill:#ffffff;stroke:none;stroke-width:3px;stroke-miterlimit:10;enable-background:accumulate;stop-color:#000000"
       d="m 60.349609,18.529297 c -1.34874,0 -2.672432,0.106649 -3.951172,0.296875 h -0.002 l -0.0039,0.002 c -2.341383,0.360213 -4.574245,1.030615 -6.667969,1.986328 -4.262671,1.899483 -7.90745,4.926563 -10.550781,8.699219 -5.18e-4,7.18e-4 -0.0014,0.0012 -0.002,0.002 -1.237696,1.718243 -2.237405,3.589847 -3.009766,5.568359 L 36.5,34.570312 c -0.373553,0.373554 -0.460938,1.099141 -0.460938,1.119141 v 0.914063 l 0.8125,0.419921 c 0.230412,0.118922 0.406927,0.239165 0.509766,0.337891 l 0.125,0.121094 c 0.359904,0.311596 0.654089,0.725354 0.824219,1.222656 l 0.0039,0.01367 0.0059,0.01367 c 0.06762,0.185944 0.114121,0.404598 0.134766,0.652344 0.009,0.118772 0.01563,0.224126 0.01563,0.27539 0,0.219681 -0.02458,0.423201 -0.07422,0.652344 -1.63e-4,7.55e-4 -0.0018,0.0012 -0.002,0.002 -0.09949,0.442551 -0.297323,0.853077 -0.576172,1.207031 -0.09329,0.109682 -0.17401,0.203308 -0.228515,0.257813 l -1.251953,1.251953 1.439453,1.029297 c 0.07402,0.05287 0.156378,0.119109 0.255859,0.210937 l 0.03906,0.03711 0.04102,0.0332 c 0.08744,0.06995 0.211628,0.183419 0.371094,0.322265 0.162717,0.154973 0.342125,0.332931 0.541016,0.521485 0.0015,0.0014 0.0024,0.0025 0.0039,0.0039 l 0.04102,0.05273 0.05859,0.05859 c 0.298406,0.298406 0.579702,0.614758 0.84375,0.949219 l 0.01367,0.01563 L 40,46.283203 c 0.318973,0.380996 0.613241,0.78197 0.882812,1.195313 l 0.302735,0.46289 0.527344,0.15625 c 2.327408,0.690784 4.801823,1.0625 7.347656,1.0625 0.925492,0 1.836767,-0.05379 2.732422,-0.148437 3.11324,-0.318762 6.06714,-1.200855 8.751953,-2.527344 l 0.002,-0.002 h 0.0039 c 2.84e-4,-1.42e-4 0.130429,-0.06854 0.253906,-0.140625 4.833478,-2.454724 8.793635,-6.375827 11.285157,-11.197266 1.762786,-3.376903 2.795167,-7.186627 2.890625,-11.238281 L 75,23.0625 74.289062,22.607422 C 70.265839,20.027888 65.471535,18.529297 60.349609,18.529297 Z m 0,3 c 4.21748,0 8.110286,1.236662 11.501953,3.228515 -0.209405,3.229184 -1.003325,6.280585 -2.421875,8.998047 v 0.0039 l -0.002,0.002 c -2.214236,4.287737 -5.746541,7.78205 -10.052734,9.949218 l -0.08008,0.04102 -0.07617,0.05078 c 0.06801,-0.04534 0.109863,-0.06372 -0.0098,-0.0039 l 0.0059,-0.0039 c -2.375187,1.173511 -4.981756,1.951184 -7.728516,2.232422 h -0.002 l -0.002,0.002 c -0.802497,0.08497 -1.609346,0.130859 -2.421875,0.130859 -2.109076,0 -4.139832,-0.340913 -6.076172,-0.876953 -0.218799,-0.305998 -0.426239,-0.615951 -0.671875,-0.910156 -0.29729,-0.375266 -0.618235,-0.729255 -0.951172,-1.070313 l -0.04102,-0.04492 c -0.06465,-0.07416 -0.156215,-0.178668 -0.08984,-0.0957 l -0.06445,-0.08008 -0.07422,-0.07031 c -0.151813,-0.143823 -0.325786,-0.316193 -0.509766,-0.492188 0.281022,-0.502521 0.614108,-0.980645 0.742188,-1.552734 v -0.002 l 0.002,-0.0039 c 0.08912,-0.407402 0.144531,-0.843134 0.144531,-1.300781 0,-0.206923 -0.01494,-0.37976 -0.02539,-0.515625 v -0.0039 -0.0059 c -0.0387,-0.464445 -0.131858,-0.937836 -0.298828,-1.404297 -0.329433,-0.960711 -0.92184,-1.807468 -1.689453,-2.480469 0.617107,-1.392781 1.27282,-2.764415 2.150391,-3.982422 l 0.0059,-0.0098 0.0059,-0.0078 c 2.334364,-3.337486 5.561976,-6.021382 9.330078,-7.699219 l 0.0078,-0.0039 0.0059,-0.002 c 1.844177,-0.842518 3.808856,-1.432583 5.884765,-1.751953 1.138892,-0.169064 2.31333,-0.263672 3.501953,-0.263672 z"
       id="path38" />
    <path
       style="baseline-shift:baseline;display:inline;overflow:visible;vector-effect:none;fill:#ffffff;stroke:none;stroke-width:3px;stroke-miterlimit:10;enable-background:accumulate;stop-color:#000000"
       d="m 14.640625,18.529297 c -5.1198551,0 -9.9058996,1.488464 -13.9296875,4.068359 L 0,23.052734 0.01953125,23.894531 c 0.09542023,4.039457 1.11593315,7.868881 2.89257815,11.251953 2.4821301,4.821654 6.4412513,8.741245 11.2734376,11.195313 0.123478,0.07209 0.253622,0.140483 0.253906,0.140625 h 0.002 l 0.0039,0.002 c 2.683142,1.325663 5.634988,2.20808 8.746093,2.527344 0.897504,0.09503 1.81081,0.148437 2.738281,0.148437 2.545834,0 5.020248,-0.371716 7.347657,-1.0625 l 0.527343,-0.15625 0.300782,-0.46289 c 0.269571,-0.413343 0.565792,-0.814317 0.884765,-1.195313 l 0.01367,-0.01758 0.01367,-0.01563 c 0.264048,-0.334461 0.545345,-0.650813 0.84375,-0.949219 l 0.05859,-0.05859 0.04102,-0.05273 0.002,-0.002 0.002,-0.002 c 0.201083,-0.190633 0.382767,-0.371229 0.546875,-0.527344 0.006,-0.0057 0.01361,-0.01393 0.01953,-0.01953 0.143306,-0.125685 0.269028,-0.240009 0.376953,-0.333985 l 0.0059,-0.0039 c 0.0024,-0.002 0.0055,-0.0058 0.0078,-0.0078 0.121253,-0.102402 0.218467,-0.181996 0.289062,-0.232422 l 1.441407,-1.029297 -1.251953,-1.251953 c -0.0545,-0.0545 -0.135221,-0.148131 -0.228516,-0.257813 -0.278849,-0.353954 -0.476683,-0.76448 -0.576172,-1.207031 -1.94e-4,-8.62e-4 -0.0018,-0.0011 -0.002,-0.002 -0.04964,-0.229143 -0.07422,-0.432663 -0.07422,-0.652344 0,-0.05126 0.0066,-0.156618 0.01563,-0.27539 0.02065,-0.247746 0.06715,-0.4664 0.134766,-0.652344 l 0.0078,-0.02148 0.0078,-0.02148 c 0.159884,-0.486048 0.458023,-0.92207 0.855469,-1.265625 l 0.0078,-0.0059 0.0078,-0.0078 c 0.166909,-0.148363 0.356256,-0.274808 0.564453,-0.378906 l 0.828125,-0.414063 V 35.68936 c 0,-0.489524 -0.142138,-0.649311 -0.167969,-0.6875 -0.760761,-1.951983 -1.746295,-3.796239 -2.947266,-5.488281 v -0.002 c -2.663655,-3.76688 -6.311591,-6.799292 -10.570312,-8.710938 -2.079054,-0.933452 -4.316575,-1.611372 -6.654297,-1.972656 l -0.01953,-0.002 -0.09375,-0.01563 h -0.113282 -0.01367 c -1.211938,-0.170659 -2.455126,-0.28125 -3.728516,-0.28125 z m 0,3 c 1.19126,0 2.366552,0.0939 3.507812,0.263672 h 0.0039 c 2.061599,0.31879 4.042427,0.919798 5.882812,1.746093 3.760837,1.688157 6.993338,4.374456 9.34961,7.707032 l 0.002,0.002 c 0.873319,1.230241 1.527025,2.598843 2.138672,3.984375 -0.74663,0.665732 -1.35299,1.511775 -1.683594,2.509765 -0.164345,0.462722 -0.258491,0.931974 -0.296875,1.392579 v 0.0059 0.0039 c -0.01045,0.135865 -0.02539,0.308702 -0.02539,0.515625 0,0.457647 0.05541,0.893379 0.144531,1.300781 l 0.002,0.0039 v 0.002 c 0.128079,0.572089 0.461165,1.050213 0.742187,1.552734 -0.18398,0.175995 -0.357953,0.348365 -0.509766,0.492188 l -0.07422,0.07031 -0.06641,0.08008 c 0.01264,-0.01581 -0.02528,0.02787 -0.01758,0.01758 -0.01725,0.01725 -0.03167,0.03734 -0.04883,0.05469 -0.02377,0.02426 0.0235,-0.03914 -0.0625,0.06836 -0.332936,0.341058 -0.653881,0.695047 -0.951172,1.070313 -0.245636,0.294205 -0.453075,0.604158 -0.671875,0.910156 -1.93634,0.53604 -3.967095,0.876953 -6.076172,0.876953 -0.812528,0 -1.619378,-0.04589 -2.421875,-0.130859 l -0.002,-0.002 h -0.0039 c -2.74676,-0.281238 -5.351375,-1.058911 -7.726562,-2.232422 l 0.0059,0.0039 c -0.119628,-0.05981 -0.07777,-0.04143 -0.0098,0.0039 l -0.07617,-0.05078 -0.08008,-0.04102 C 11.309042,41.543769 7.7780402,38.049401 5.5742187,33.763672 l -0.00391,-0.0059 -0.00195,-0.0059 C 4.144127,31.039942 3.3566797,27.974583 3.1484375,24.748047 6.5380667,22.757968 10.421572,21.529297 14.640625,21.529297 Z m 20.9375,13.625 c -0.0018,0.0015 -0.0021,0.0043 -0.0039,0.0059 -0.0036,0.0032 -0.0081,0.0046 -0.01172,0.0078 z"
       id="path39" />
    <path
       style="baseline-shift:baseline;display:inline;overflow:visible;vector-effect:none;fill:#ffffff;stroke:none;stroke-width:3px;stroke-miterlimit:10;enable-background:accumulate;stop-color:#000000"
       d="m 36.501953,40.880859 -1.033203,0.738282 c -0.205978,0.147127 -0.368047,0.286484 -0.498047,0.396484 l -0.0059,0.0059 -0.0078,0.0059 c -0.174934,0.151609 -0.314387,0.280281 -0.439453,0.388672 l -0.02539,0.02148 -0.02344,0.02344 c -0.210136,0.199077 -0.400448,0.389858 -0.570313,0.550782 l -0.07422,0.07031 -0.06641,0.08008 c 0.01264,-0.01581 -0.02528,0.02787 -0.01758,0.01758 -0.01725,0.01725 -0.03167,0.03734 -0.04883,0.05469 -0.02377,0.02426 0.0235,-0.03914 -0.0625,0.06836 -0.332936,0.341058 -0.653881,0.695047 -0.951172,1.070313 -0.391778,0.469244 -0.748125,0.955434 -1.072265,1.451172 -1.98059,2.949119 -3.125,6.497495 -3.125,10.30664 0,1.378915 0.152826,2.728329 0.447265,4.027344 2.82e-4,0.0012 -2.82e-4,0.0027 0,0.0039 0.207974,0.978514 0.500246,1.921976 0.867188,2.830078 5.42e-4,0.0014 0.0014,0.0025 0.002,0.0039 1.383227,3.493731 3.796788,6.459951 6.865234,8.527343 l 0.841797,0.56836 0.839844,-0.570313 c 3.053406,-2.075447 5.461987,-5.037889 6.845703,-8.519531 V 63 c 0.368438,-0.910534 0.664468,-1.856527 0.873047,-2.837891 v -0.0039 c 0.294439,-1.299015 0.447266,-2.648429 0.447266,-4.027344 0,-3.809145 -1.144411,-7.357521 -3.125,-10.30664 -0.324141,-0.495738 -0.680488,-0.981928 -1.072266,-1.451172 -0.309919,-0.391207 -0.643551,-0.761235 -0.992188,-1.115235 -0.06465,-0.07416 -0.156215,-0.178668 -0.08984,-0.0957 l -0.06445,-0.08008 -0.07422,-0.07031 c -0.169877,-0.160933 -0.36019,-0.351714 -0.570326,-0.550791 l -0.02344,-0.02344 -0.02539,-0.02148 C 40.36866,42.325887 40.22608,42.199663 40.068357,42.06836 l -0.0059,-0.0039 c -0.159294,-0.1468 -0.337077,-0.299642 -0.541016,-0.445312 l -1.033203,-0.738282 -0.898437,0.898438 c -0.02586,0.02586 -0.06642,0.04317 -0.09375,0.06836 -0.02933,-0.02704 -0.06724,-0.0399 -0.0957,-0.06836 z m -0.06445,3.847657 c 0.142784,0.08584 0.253947,0.215635 0.404297,0.289062 l 0.673828,0.330078 0.667969,-0.341797 c 0.138003,-0.07061 0.242732,-0.191066 0.375,-0.271484 0.144831,0.139565 0.294965,0.288271 0.466797,0.451172 0.0015,0.0014 0.0024,0.0025 0.0039,0.0039 l 0.04102,0.05273 0.05859,0.05859 c 0.298406,0.298406 0.579702,0.614758 0.84375,0.949219 l 0.01367,0.01563 L 40,46.283203 c 0.318973,0.380996 0.613241,0.78197 0.882812,1.195313 l 0.0059,0.0098 0.0059,0.0078 c 1.659411,2.47088 2.615235,5.423911 2.615235,8.634765 0,1.159764 -0.128042,2.28735 -0.373047,3.367188 l -0.002,0.01172 -0.002,0.0098 c -0.171031,0.810148 -0.414181,1.595307 -0.722656,2.357422 l -0.002,0.0059 -0.002,0.0039 c -1.013763,2.554364 -2.781792,4.691 -4.908203,6.376953 -2.131227,-1.678134 -3.899746,-3.811256 -4.914063,-6.375 l -0.002,-0.0059 -0.002,-0.0059 C 32.271403,61.114849 32.028253,60.32969 31.857222,59.519542 l -0.002,-0.0098 -0.002,-0.01172 c -0.245006,-1.079838 -0.373047,-2.207424 -0.373047,-3.367188 0,-3.210854 0.955824,-6.163885 2.615234,-8.634765 l 0.0059,-0.0078 0.0039,-0.0098 c 0.269571,-0.413343 0.565792,-0.814317 0.884765,-1.195313 l 0.01367,-0.01758 0.01367,-0.01563 c 0.264048,-0.334461 0.545345,-0.650813 0.84375,-0.949219 l 0.05859,-0.05859 0.04102,-0.05273 0.002,-0.002 0.002,-0.002 c 0.174024,-0.16498 0.326325,-0.316131 0.472656,-0.457031 z"
       id="path40" />
    <path
       style="baseline-shift:baseline;display:inline;overflow:visible;vector-effect:none;fill:#ffffff;stroke:none;stroke-width:3px;stroke-miterlimit:10;enable-background:accumulate;stop-color:#000000"
       d="m 37.796875,33.833984 -0.966797,0.484375 c 0.158886,-0.07944 -0.244629,0.113771 -0.441406,0.310547 l 0.390625,-0.28125 c -0.427659,0.21383 -0.834852,0.485161 -1.205078,0.8125 -0.777224,0.673399 -1.392278,1.555241 -1.732422,2.582031 -0.164345,0.462722 -0.258491,0.931974 -0.296875,1.392579 v 0.0059 0.0039 c -0.01045,0.135865 -0.02539,0.308702 -0.02539,0.515625 0,0.457647 0.05541,0.893379 0.144531,1.300781 l 0.002,0.0039 v 0.002 c 0.200053,0.89357 0.600486,1.721996 1.158203,2.425781 l 0.01563,0.01758 0.01563,0.01953 c 0.11,0.13 0.244902,0.291778 0.423828,0.470704 0.454385,0.454385 0.981431,0.833409 1.5625,1.117187 l 0.673828,0.330078 0.667969,-0.341797 c 0.56203,-0.28755 1.079492,-0.657617 1.527343,-1.105468 0.178926,-0.178926 0.313829,-0.340703 0.423829,-0.470704 l 0.01563,-0.01953 0.01563,-0.01758 c 0.557716,-0.703785 0.95815,-1.532211 1.158203,-2.425781 v -0.002 l 0.002,-0.0039 c 0.08912,-0.407402 0.144531,-0.843134 0.144531,-1.300781 0,-0.206923 -0.01494,-0.37976 -0.02539,-0.515625 v -0.0039 -0.0059 c -0.0387,-0.464445 -0.131858,-0.937836 -0.298828,-1.404297 -0.339482,-0.990015 -0.936468,-1.875489 -1.740234,-2.556641 -0.291181,-0.273614 -0.5906,-0.443303 -0.884766,-0.613281 z m 1.609375,1.339844 c -0.01169,-0.0099 -0.01361,-0.0273 -0.02539,-0.03711 L 39.246094,35.025391 39.070312,34.9375 Z m -1.912109,2.320313 c 0.355038,0.310732 0.647901,0.718385 0.816406,1.210937 l 0.0039,0.01367 0.0059,0.01367 c 0.06762,0.185944 0.114121,0.404598 0.134766,0.652344 0.009,0.118772 0.01563,0.224126 0.01563,0.27539 0,0.219681 -0.02458,0.423201 -0.07422,0.652344 -1.63e-4,7.55e-4 -0.0018,0.0012 -0.002,0.002 -0.09949,0.442551 -0.297323,0.853077 -0.576172,1.207031 -0.09329,0.109682 -0.17401,0.203308 -0.228515,0.257813 -0.02586,0.02586 -0.06642,0.04317 -0.09375,0.06836 -0.02933,-0.02704 -0.06724,-0.0399 -0.0957,-0.06836 -0.0545,-0.0545 -0.135221,-0.148131 -0.228516,-0.257813 -0.278849,-0.353954 -0.476683,-0.76448 -0.576172,-1.207031 -1.94e-4,-8.62e-4 -0.0018,-0.0011 -0.002,-0.002 -0.04964,-0.229143 -0.07422,-0.432663 -0.07422,-0.652344 0,-0.05126 0.0066,-0.156618 0.01563,-0.27539 0.02065,-0.247746 0.06715,-0.4664 0.134766,-0.652344 l 0.0078,-0.02148 0.0078,-0.02148 c 0.15104,-0.459162 0.443568,-0.86139 0.808594,-1.195312 z"
       id="path41" />
    <path
       style="baseline-shift:baseline;display:inline;overflow:visible;vector-effect:none;fill:#ffffff;stroke:none;stroke-width:3px;stroke-miterlimit:10;enable-background:accumulate;stop-color:#000000"
       d="m 37.5,-0.00195313 -0.708984,0.38085938 c -0.427908,0.22960923 -0.8459,0.46316193 -1.267579,0.72265625 l -0.15039,0.09375 -0.101563,0.1015625 0.222657,-0.1738281 c -0.08184,0.050305 -0.143378,0.1265499 -0.22461,0.1777343 l -0.0098,0.00977 c -0.01517,0.013527 -0.01831,0.00889 -0.0332,0.023437 -0.0036,0.00349 -0.0043,0.00231 -0.0078,0.00586 -3.241061,2.0534736 -5.985589,4.7980014 -8.039063,8.0390626 -0.0036,0.00356 -0.0024,0.00422 -0.0059,0.00781 -0.01459,0.014938 -0.0099,0.017982 -0.02344,0.033203 l -0.0098,0.00977 c -0.05118,0.081232 -0.12743,0.1427701 -0.177734,0.2246094 l 0.173828,-0.2226563 -0.103516,0.1035157 -0.0918,0.1503906 c -0.01227,0.02003 -0.01708,0.044389 -0.0293,0.064453 -3.07e-4,5.045e-4 3.08e-4,0.00145 0,0.00195 -1.106146,1.8164268 -2.005497,3.7692858 -2.636718,5.8417968 -0.646658,2.08064 -1.029777,4.259244 -1.125,6.523437 l -0.04102,1.017579 0.929687,0.414062 c 3.758512,1.67774 6.989432,4.36469 9.345704,7.697266 l 0.002,0.002 c 1.078869,1.519799 1.968153,3.170244 2.642578,4.921875 l 0.208984,0.541015 0.521485,0.259766 c 0.198885,0.09944 0.229198,0.110693 0.07031,0.03125 L 37.5,37.337891 l 1.248047,-0.625 0.208984,-0.53711 c 0.687317,-1.76066 1.568805,-3.407036 2.650391,-4.908203 l 0.0059,-0.0098 0.0059,-0.0078 c 2.334364,-3.337486 5.563565,-6.02269 9.333984,-7.710938 L 51.88094,23.123025 51.83797,22.1074 C 51.742625,19.852813 51.361498,17.674384 50.714844,15.59375 50.1311,13.677125 49.263907,11.878207 48.25,10.169922 V 10.015625 L 48.029297,9.65625 C 45.904974,6.1936042 42.976318,3.2649476 39.513672,1.140625 l -0.0039,-0.00391 C 39.079359,0.86081679 38.644626,0.61266492 38.208984,0.37890625 Z M 37.4941,3.4316406 c 0.130295,0.077702 0.270504,0.1497122 0.396484,0.2304688 l 0.03125,0.021484 0.02344,0.015625 c 3.033162,1.8608354 5.600578,4.4331319 7.472657,7.4589846 l 0.06055,0.0957 c 1.010089,1.618013 1.805145,3.367518 2.367187,5.212891 v 0.0039 l 0.002,0.0059 c 0.492455,1.582316 0.724545,3.25388 0.857422,4.958985 -3.792735,1.91815 -7.11611,4.631153 -9.53125,8.078125 -5.18e-4,7.18e-4 -0.0014,0.0012 -0.002,0.002 -0.688144,0.955322 -1.131273,2.053312 -1.673828,3.095703 -0.54203,-1.042252 -0.986166,-2.14257 -1.664063,-3.097656 v -0.002 c -2.432052,-3.439353 -5.758204,-6.152807 -9.548828,-8.066407 0.13283,-1.712104 0.364837,-3.386016 0.857422,-4.96875 l 0.002,-0.0059 v -0.0039 c 0.560599,-1.840632 1.355772,-3.579479 2.34961,-5.203125 l 0.02344,-0.03906 c 1.886394,-3.06891 4.479918,-5.6604808 7.548828,-7.546875 l 0.07227,-0.044922 C 37.252927,3.562965 37.378034,3.4991638 37.49416,3.4316401 Z m -0.123047,0.00977 -0.05273,0.042969 0.01172,-0.013672 c 0.01888,-0.016825 0.02262,-0.010904 0.04102,-0.029297 z m -8.048828,8.0371094 -0.04102,0.05273 c 0.01834,-0.01834 0.01252,-0.0222 0.0293,-0.04102 z"
       id="path42" />
  </g>
</svg>
